<svg xmlns="http://www.w3.org/2000/svg" style="display: none;">
    <symbol id="SAB00600a" viewBox="0 0 28 28">
        <path fill="currentColor" d="M27.14 15.75H14.92l8.62 8.62c0.33 0.33 0.87 0.35 1.21 0.04 2.11-1.99 3.56-4.68 3.99-7.71 0.07-0.52-0.36-0.98-0.88-0.98zM26.46 11.93C26.02 5.66 21.01 0.65 14.85 0.003c-0.5-0.03-0.94 0.42-0.94 0.91v12.18h12.22c0.5 0 0.92-0.42 0.89-0.93zM11.55 15.75V2.77c0-0.5-0.44-0.91-0.94-0.84C4.48 2.81-0.21 8.48 0.07 15.23c0.23 6.78 6.39 12.62 13.53 12.52 2.81-0.04 5.41-0.94 7.54-2.45 0.44-0.31 0.47-0.96 0.09-1.34L11.55 15.75z"
        />
    </symbol>
    <symbol id="fav" viewBox="0 0 32 32">
        <path fill="currentColor" d="M32,12.244 L20.962,10.56 L16,0 L11.038,10.56 L0,12.244 L7.985,20.42 L6.095,32 L16,26.53 L25.905,32 L24.015,20.42 L32,12.244" />
    </symbol>
    <symbol id="see-password" viewBox="0 0 28 28">
        <path clip-rule="evenodd" fill="currentColor" fill-rule="evenodd" d="M17.7469 15.4149C17.9855 14.8742 18.1188 14.2724 18.1188 14.0016C18.1188 11.6544 16.2952 9.7513 14.046 9.7513C11.7969 9.7513 9.97332 11.6544 9.97332 14.0016C9.97332 16.3487 12.0097 17.8886 14.046 17.8886C15.3486 17.8886 16.508 17.2515 17.2517 16.2595C17.4466 16.0001 17.6137 15.7168 17.7469 15.4149ZM14.046 15.7635C14.5551 15.7635 15.0205 15.5684 15.3784 15.2457C15.81 14.8566 16 14.2807 16 14.0016C16 12.828 15.1716 11.8764 14.046 11.8764C12.9205 11.8764 12 12.8264 12 14C12 14.8104 12.9205 15.7635 14.046 15.7635Z"
        />
        <path clip-rule="evenodd" fill="currentColor" fill-rule="evenodd" d="M1.09212 14.2724C1.07621 14.2527 1.10803 14.2931 1.09212 14.2724C0.96764 14.1021 0.970773 13.8996 1.09268 13.7273C1.10161 13.7147 1.11071 13.7016 1.11993 13.6882C4.781 8.34319 9.32105 5.5 14.0142 5.5C18.7025 5.5 23.2385 8.33554 26.8956 13.6698C26.965 13.771 27 13.875 27 13.9995C27 14.1301 26.9593 14.2399 26.8863 14.3461C23.2302 19.6702 18.6982 22.5 14.0142 22.5C9.30912 22.5 4.75717 19.6433 1.09212 14.2724ZM3.93909 13.3525C3.6381 13.7267 3.6381 14.2722 3.93908 14.6465C7.07417 18.5443 10.6042 20.3749 14.0142 20.3749C17.4243 20.3749 20.9543 18.5443 24.0894 14.6465C24.3904 14.2722 24.3904 13.7267 24.0894 13.3525C20.9543 9.45475 17.4243 7.62513 14.0142 7.62513C10.6042 7.62513 7.07417 9.45475 3.93909 13.3525Z"
        />
    </symbol>
    <symbol id="hide-password" viewBox="0 0 28 28">
        <path clip-rule="evenodd" fill="currentColor" fill-rule="evenodd" d="M22.6928 1.55018C22.3102 1.32626 21.8209 1.45915 21.6 1.84698L19.1533 6.14375C17.4864 5.36351 15.7609 4.96457 14.0142 4.96457C9.32104 4.96457 4.781 7.84644 1.11993 13.2641L1.10541 13.2854L1.09271 13.3038C0.970762 13.4784 0.967649 13.6837 1.0921 13.8563C3.79364 17.8691 6.97705 20.4972 10.3484 21.6018L8.39935 25.0222C8.1784 25.4101 8.30951 25.906 8.69214 26.1299L9.03857 26.3326C9.4212 26.5565 9.91046 26.4237 10.1314 26.0358L23.332 2.86058C23.553 2.47275 23.4219 1.97684 23.0392 1.75291L22.6928 1.55018ZM18.092 8.00705C16.7353 7.40974 15.3654 7.1186 14.0142 7.1186C10.6042 7.1186 7.07416 8.97311 3.93908 12.9239C3.63812 13.3032 3.63812 13.8561 3.93908 14.2354C6.28912 17.197 8.86102 18.9811 11.438 19.689L12.7855 17.3232C11.2462 16.8322 9.97333 15.4627 9.97333 13.5818C9.97333 11.2026 11.7969 9.27368 14.046 9.27368C15.0842 9.27368 16.0317 9.68468 16.7511 10.3612L18.092 8.00705ZM15.639 12.3137C15.2926 11.7767 14.7231 11.4277 14.046 11.4277C12.9205 11.4277 12 12.3906 12 13.5802C12 14.3664 12.8432 15.2851 13.9024 15.3624L15.639 12.3137Z"
        />
        <path clip-rule="evenodd" fill="currentColor" fill-rule="evenodd" d="M14.6873 22.1761C19.1311 21.9148 23.4056 19.0687 26.8864 13.931C26.9593 13.8234 27 13.7121 27 13.5797C27 13.4535 26.965 13.3481 26.8956 13.2455C25.5579 11.2677 24.1025 9.62885 22.5652 8.34557L21.506 10.2052C22.3887 10.9653 23.2531 11.87 24.0894 12.9239C24.3904 13.3032 24.3904 13.8561 24.0894 14.2354C21.5676 17.4135 18.7903 19.2357 16.0254 19.827L14.6873 22.1761Z"
        />
    </symbol>
    <symbol id="default" viewBox="0 0 128 128">
        <path d="M0 0 C42.24 0 84.48 0 128 0 C128 42.24 128 84.48 128 128 C85.76 128 43.52 128 0 128 C0 85.76 0 43.52 0 0 Z " fill="#EEECFE" transform="translate(0,0)" />
        <path d="M0 0 C42.24 0 84.48 0 128 0 C128 10.89 128 21.78 128 33 C85.76 33 43.52 33 0 33 C0 22.11 0 11.22 0 0 Z " fill="#5E5970" transform="translate(0,0)" />
        <path d="M0 0 C7.19645471 5.91708499 11.2841093 13.81029348 13.75 22.6875 C13.8125 25.3125 13.8125 25.3125 12.75 27.125 C10.8125 28.3125 10.8125 28.3125 7.9375 28.5 C4.81017686 28.9725264 4.81017686 28.9725264 3.55859375 30.9375 C2.75335605 32.34068649 1.96081454 33.75121872 1.1796875 35.16796875 C-0.99489788 38.57896125 -3.99558831 40.88407151 -7.1875 43.3125 C-6.5275 44.01375 -5.8675 44.715 -5.1875 45.4375 C-2.85346866 48.79267005 -3.01127513 50.3364264 -3.1875 54.3125 C-7.49998609 54.34136537 -11.81244762 54.35925255 -16.125 54.375 C-17.97254883 54.38756836 -17.97254883 54.38756836 -19.85742188 54.40039062 C-21.02724609 54.40361328 -22.19707031 54.40683594 -23.40234375 54.41015625 C-25.02837524 54.41801147 -25.02837524 54.41801147 -26.68725586 54.42602539 C-29.1875 54.3125 -29.1875 54.3125 -30.1875 53.3125 C-29.85401653 48.81047318 -29.60229355 46.30503414 -26.1875 43.3125 C-26.73019531 42.87679687 -27.27289062 42.44109375 -27.83203125 41.9921875 C-32.06834029 38.46574646 -35.21485526 35.61398275 -37.1875 30.3125 C-37.1875 29.6525 -37.1875 28.9925 -37.1875 28.3125 C-38.115625 28.374375 -39.04375 28.43625 -40 28.5 C-43.1875 28.3125 -43.1875 28.3125 -45.0625 27.125 C-46.58717894 24.66857282 -46.39587803 23.18893399 -46.1875 20.3125 C-43.64906824 11.8315644 -39.72622874 3.87014786 -32.1015625 -1.02734375 C-21.2654087 -6.68711925 -10.62964835 -5.62746089 0 0 Z "
        fill="#CB9D82" transform="translate(56.1875,54.6875)" />
        <path d="M0 0 C4.95 0 9.9 0 15 0 C15.09254409 4.37527876 15.17194885 8.74707561 15.21972656 13.12255859 C15.23966981 14.60640048 15.2668349 16.09016555 15.30175781 17.57373047 C15.48502661 25.56748415 15.56826887 32.65827706 11.890625 39.99414062 C10.51224401 43.09852061 10.70935227 45.65755115 11 49 C12.32 49.33 13.64 49.66 15 50 C15.01401855 51.45237061 15.01401855 51.45237061 15.02832031 52.93408203 C15.06836783 56.54635647 15.13416554 60.15779235 15.20751953 63.76953125 C15.23564413 65.3289915 15.25690089 66.88859204 15.27099609 68.44824219 C15.29254542 70.69799173 15.33925057 72.94606974 15.390625 75.1953125 C15.39185364 75.8861795 15.39308228 76.57704651 15.39434814 77.28884888 C15.54363945 82.2875151 16.90523468 85.12405256 20 89 C22.94620011 91.6515801 25.42174226 93.21087113 29 95 C19.43 95 9.86 95 0 95 C0 63.65 0 32.3 0 0 Z "
        fill="#D4D4FE" transform="translate(0,33)" />
        <path d="M0 0 C5.80478606 4.7728241 9.28125253 9.96251214 10.8125 17.3125 C7.5 18 7.5 18 3.8125 18.3125 C2.3125 16.9375 2.3125 16.9375 0.8125 15.3125 C-1.51025177 14.91202556 -3.84489357 14.5727896 -6.1875 14.3125 C-6.5175 13.9825 -6.8475 13.6525 -7.1875 13.3125 C-9.87990591 13.09419682 -11.65887275 13.03341108 -14.07421875 14.30859375 C-16.46124327 15.4425407 -18.05984832 15.58049761 -20.6875 15.5625 C-21.4403125 15.56765625 -22.193125 15.5728125 -22.96875 15.578125 C-25.42598133 15.28394942 -27.00063081 14.42824959 -29.1875 13.3125 C-32.31430099 13.30575074 -32.31430099 13.30575074 -35.1875 14.3125 C-36.62387698 16.26413118 -36.62387698 16.26413118 -37.1875 18.3125 C-39.4975 18.3125 -41.8075 18.3125 -44.1875 18.3125 C-43.83577794 11.45391979 -40.11892564 6.10744226 -35.2578125 1.47265625 C-24.36416983 -7.1956314 -11.78805637 -6.24073572 0 0 Z "
        fill="#F8CE64" transform="translate(56.1875,54.6875)" />
        <path d="M0 0 C1.19133545 -0.00622879 2.3826709 -0.01245758 3.61010742 -0.01887512 C4.89763916 -0.00966537 6.1851709 -0.00045563 7.51171875 0.0090332 C8.84545898 0.00955191 10.17919998 0.00903379 11.51293945 0.00752258 C14.30724512 0.00761227 17.10126205 0.01803396 19.89550781 0.03613281 C23.4768536 0.05882016 27.05777755 0.05936381 30.63917542 0.05261517 C33.39298246 0.04927328 36.14669337 0.05590937 38.90048218 0.0657444 C40.86309007 0.07146434 42.82571434 0.07016064 44.78833008 0.06877136 C45.97966553 0.07830338 47.17100098 0.08783539 48.3984375 0.09765625 C49.97371216 0.10456734 49.97371216 0.10456734 51.58081055 0.11161804 C54.19921875 0.37231445 54.19921875 0.37231445 57.19921875 2.37231445 C57.5889395 5.42512702 57.83977269 7.45241905 56.03833008 10.03945923 C53.44633904 11.91794736 51.58273291 11.75326101 48.3984375 11.76049805 C46.61143433 11.77468277 46.61143433 11.77468277 44.78833008 11.78915405 C42.85703247 11.78004501 42.85703247 11.78004501 40.88671875 11.77075195 C39.5529769 11.77277301 38.21923612 11.77568471 36.88549805 11.77944946 C34.09120149 11.78387141 31.29719277 11.77744635 28.50292969 11.76342773 C24.9214741 11.74633539 21.34069293 11.75617734 17.75926208 11.77414513 C15.00544149 11.78498676 12.25178074 11.781535 9.49795532 11.77376175 C7.5353349 11.77078774 5.57270827 11.77989737 3.61010742 11.78915405 C2.41877197 11.77969757 1.22743652 11.77024109 0 11.76049805 C-1.05018311 11.75811127 -2.10036621 11.75572449 -3.18237305 11.75326538 C-5.80078125 11.37231445 -5.80078125 11.37231445 -7.63989258 10.00430298 C-9.3024825 7.66701798 -9.22086456 6.17286983 -8.80078125 3.37231445 C-6.34461881 -0.08268093 -4.07393691 -0.00244171 0 0 Z "
        fill="#EEECFD" transform="translate(60.80078125,11.627685546875)" />
        <path d="M0 0 C-0.23589844 0.81210938 -0.23589844 0.81210938 -0.4765625 1.640625 C-1.88441035 7.98644665 -2.23143959 14.7981948 1.1875 20.5 C3.87005367 24.16564862 6.91566678 26.95783339 11 29 C12.45719747 29.10127241 13.9158651 29.18213326 15.375 29.25 C18.8678163 29.61559269 19.78967647 29.82045552 22.5625 32.1875 C24.20929182 35.409484 24.11336409 37.43642439 24 41 C19.68751391 41.02886537 15.37505238 41.04675255 11.0625 41.0625 C9.21495117 41.07506836 9.21495117 41.07506836 7.33007812 41.08789062 C6.16025391 41.09111328 4.99042969 41.09433594 3.78515625 41.09765625 C2.15912476 41.10551147 2.15912476 41.10551147 0.50024414 41.11352539 C-2 41 -2 41 -3 40 C-2.66651653 35.49797318 -2.41479355 32.99253414 1 30 C0.45730469 29.56429687 -0.08539062 29.12859375 -0.64453125 28.6796875 C-4.88084029 25.15324646 -8.02735526 22.30148275 -10 17 C-10 16.34 -10 15.68 -10 15 C-10.928125 15.061875 -11.85625 15.12375 -12.8125 15.1875 C-16 15 -16 15 -17.875 13.8125 C-19.42229478 11.31963619 -19.50405716 9.88032665 -19 7 C-17.3125 5.125 -17.3125 5.125 -15 4 C-12.25 4.3125 -12.25 4.3125 -10 5 C-9.71125 4.195625 -9.4225 3.39125 -9.125 2.5625 C-7.05707701 -2.14776903 -4.49406067 -0.87927274 0 0 Z "
        fill="#B9886E" transform="translate(29,68)" />
        <path d="M0 0 C1.08166443 -0.00074776 1.08166443 -0.00074776 2.18518066 -0.00151062 C3.70828002 0.00082763 5.23138339 0.01054165 6.75439453 0.02709961 C9.08531253 0.05069584 11.41508663 0.04765877 13.74609375 0.04101562 C15.22656932 0.04659254 16.70704007 0.05370251 18.1875 0.0625 C18.8844397 0.06158859 19.58137939 0.06067719 20.29943848 0.05973816 C23.94808425 0.11318049 25.47187115 0.28202868 28.59375 2.36328125 C28.9921875 4.421875 28.9921875 4.421875 28.96875 6.80078125 C28.98035156 7.97447266 28.98035156 7.97447266 28.9921875 9.171875 C28.4793621 11.9924147 27.91840982 12.68201451 25.59375 14.36328125 C22.37915039 14.76733398 22.37915039 14.76733398 18.44140625 14.796875 C17.3965934 14.80473778 17.3965934 14.80473778 16.33067322 14.8127594 C14.85889009 14.8191765 13.38705566 14.81784654 11.9152832 14.80932617 C9.66719844 14.80082266 7.42166134 14.82956446 5.17382812 14.86132812 C3.74218826 14.8629405 2.31054391 14.86236191 0.87890625 14.859375 C-0.42167725 14.86122803 -1.72226074 14.86308105 -3.06225586 14.86499023 C-6.40625 14.36328125 -6.40625 14.36328125 -8.83422852 12.55493164 C-11.10531596 9.38867105 -10.88942457 7.15965286 -10.40625 3.36328125 C-7.92799075 -0.57635519 -4.20303602 -0.05554125 0 0 Z "
        fill="#A4E6FF" transform="translate(89.40625,94.63671875)" />
        <path d="M0 0 C1.08309952 0.03466873 1.08309952 0.03466873 2.18807983 0.07003784 C3.70974045 0.12288914 5.23108376 0.18569676 6.75195312 0.2578125 C9.08436589 0.36711385 11.41615972 0.44389012 13.75 0.515625 C15.22923921 0.57101215 16.70841086 0.62824046 18.1875 0.6875 C18.88646393 0.71159943 19.58542786 0.73569885 20.30557251 0.76052856 C25.22845817 1.00970817 25.22845817 1.00970817 27.4609375 3.2421875 C27.7265625 5.3359375 27.7265625 5.3359375 27.7109375 7.7421875 C27.71867187 8.93328125 27.71867187 8.93328125 27.7265625 10.1484375 C27.4609375 12.2421875 27.4609375 12.2421875 25.4609375 14.2421875 C23.00443897 14.5363362 20.65296542 14.71186875 18.1875 14.796875 C17.10727066 14.84015427 17.10727066 14.84015427 16.00521851 14.88430786 C14.48055209 14.94139594 12.95567867 14.99316493 11.43066406 15.04003906 C9.10077464 15.11669931 6.77381474 15.22552588 4.4453125 15.3359375 C2.96360926 15.38740097 1.48183778 15.43694313 0 15.484375 C-0.69491547 15.52061981 -1.38983093 15.55686462 -2.10580444 15.59420776 C-5.47794519 15.66571898 -7.22954099 15.47007015 -9.97900391 13.44580078 C-12.25377239 10.2326458 -12.08756639 8.08171475 -11.5390625 4.2421875 C-8.35812023 -0.25095568 -5.13106793 -0.26762189 0 0 Z "
        fill="#A4E6FF" transform="translate(90.5390625,70.7578125)" />
        <path d="M0 0 C9.57 0 19.14 0 29 0 C27.02 0.99 27.02 0.99 25 2 C23.8023159 2.91927508 22.63496548 3.87932574 21.5 4.875 C20.89671875 5.40351562 20.2934375 5.93203125 19.671875 6.4765625 C18.33093871 7.6984437 17.03279067 8.96720933 15.75 10.25 C14 12 14 12 11 14 C10.63702064 15.97747122 10.63702064 15.97747122 10.8125 18.125 C10.874375 19.40375 10.93625 20.6825 11 22 C12.32 22.66 13.64 23.32 15 24 C15 26.97 15 29.94 15 33 C10.05 33 5.1 33 0 33 C0 22.11 0 11.22 0 0 Z "
        fill="#504C5E" transform="translate(0,0)" />
        <path d="M0 0 C0.85916016 -0.02835937 1.71832031 -0.05671875 2.60351562 -0.0859375 C6.80360337 -0.09897113 8.85149872 -0.09018452 12.16015625 2.65625 C13.7533601 5.88703664 13.67274485 7.95005444 13.5625 11.5 C9.25001391 11.52886537 4.93755238 11.54675255 0.625 11.5625 C-0.60669922 11.57087891 -1.83839844 11.57925781 -3.10742188 11.58789062 C-4.27724609 11.59111328 -5.44707031 11.59433594 -6.65234375 11.59765625 C-8.27837524 11.60551147 -8.27837524 11.60551147 -9.93725586 11.61352539 C-12.4375 11.5 -12.4375 11.5 -13.4375 10.5 C-12.97153409 4.20946015 -12.97153409 4.20946015 -11.15991211 1.80273438 C-7.90429897 -0.65962589 -3.93389037 -0.01175173 0 0 Z "
        fill="#828AD8" transform="translate(39.4375,97.5)" />
        <path d="M0 0 C0.99386719 0.00902344 1.98773438 0.01804688 3.01171875 0.02734375 C4.15060547 0.04474609 4.15060547 0.04474609 5.3125 0.0625 C2.3125 2.0625 2.3125 2.0625 0.515625 3 C-4.92658216 5.96056069 -7.82538492 9.57016812 -11.14453125 14.7578125 C-12.5205631 16.81315121 -13.92258292 18.35321068 -15.6875 20.0625 C-16.0175 20.7225 -16.3475 21.3825 -16.6875 22.0625 C-18.9975 22.0625 -21.3075 22.0625 -23.6875 22.0625 C-23.33531353 15.19486379 -19.6141793 9.71307747 -14.6171875 5.1875 C-9.69361059 1.40851846 -6.29716627 -0.07408431 0 0 Z "
        fill="#F9B75D" transform="translate(35.6875,50.9375)" />
        <path d="M0 0 C0.90105469 0.02707031 1.80210938 0.05414063 2.73046875 0.08203125 C3.76107422 0.13423828 3.76107422 0.13423828 4.8125 0.1875 C3.8225 1.6725 3.8225 1.6725 2.8125 3.1875 C2.41291513 6.60767557 2.2489652 10.06043041 3.8125 13.1875 C2.18831255 13.26840971 0.56298255 13.32664995 -1.0625 13.375 C-2.41988281 13.42720703 -2.41988281 13.42720703 -3.8046875 13.48046875 C-4.98417969 13.33544922 -4.98417969 13.33544922 -6.1875 13.1875 C-8.65074069 9.49263897 -8.57741688 7.55456908 -8.1875 3.1875 C-5.87430438 -0.11598525 -3.88322225 -0.15129437 0 0 Z "
        fill="#5FD6FF" transform="translate(87.1875,94.8125)" />
        <path d="M0 0 C1.21236328 0.04060547 1.21236328 0.04060547 2.44921875 0.08203125 C3.06410156 0.11683594 3.67898437 0.15164062 4.3125 0.1875 C3.9825 1.1775 3.6525 2.1675 3.3125 3.1875 C3.18093473 6.87132769 3.14267862 9.67803585 4.3125 13.1875 C2.87594146 13.26881463 1.4380517 13.32683559 0 13.375 C-1.20076172 13.42720703 -1.20076172 13.42720703 -2.42578125 13.48046875 C-4.6875 13.1875 -4.6875 13.1875 -6.45703125 11.89453125 C-8.50086266 9.05912069 -8.04802525 6.55240235 -7.6875 3.1875 C-5.44616073 0.07808647 -3.72728723 -0.16205597 0 0 Z "
        fill="#5ED6FF" transform="translate(86.6875,71.8125)" />
        <path d="M0 0 C0.90105469 0.02707031 1.80210938 0.05414063 2.73046875 0.08203125 C3.76107422 0.13423828 3.76107422 0.13423828 4.8125 0.1875 C4.4825 0.8475 4.1525 1.5075 3.8125 2.1875 C3.66874578 5.56572416 3.73713652 7.96140955 4.8125 11.1875 C3.20917209 11.26871924 1.60465974 11.32679134 0 11.375 C-0.89332031 11.40980469 -1.78664063 11.44460937 -2.70703125 11.48046875 C-5.1875 11.1875 -5.1875 11.1875 -6.98828125 9.83203125 C-8.69481102 7.49180639 -8.61158618 6.0147412 -8.1875 3.1875 C-5.80905636 -0.07414421 -3.9079368 -0.15225728 0 0 Z "
        fill="#D2D2FB" transform="translate(60.1875,11.8125)" />
        <path d="M0 0 C1.9375 1.125 1.9375 1.125 3 3 C2.77669287 6.64734979 2.61627165 8.38372835 0 11 C-3.13704316 11.333728 -5.16554166 11.52849028 -7.875 9.8125 C-9.40659584 7.34492892 -9.42822025 5.85480169 -9 3 C-6.73529086 -0.64869805 -4.03159541 -0.50394943 0 0 Z "
        fill="#6FD5B6" transform="translate(40,12)" />
        <path d="M0 0 C3.0625 0.25 3.0625 0.25 6.0625 2.25 C6.46157251 5.37606798 6.53130951 7.39511207 5 10.1875 C1.88107551 11.89787795 -0.59307801 11.05513863 -3.9375 10.25 C-5.31875018 7.48749964 -5.12829306 5.30268901 -4.9375 2.25 C-2.9375 0.25 -2.9375 0.25 0 0 Z "
        fill="#F78B9B" transform="translate(14.9375,11.75)" />
        <path d="M0 0 C2.625 0.3125 2.625 0.3125 4.5 2 C5.92624388 4.93172354 5.66730389 6.26576554 4.625 9.3125 C2.625 11.3125 2.625 11.3125 0.0625 11.5 C-2.375 11.3125 -2.375 11.3125 -3.375 10.3125 C-3.4729057 8.81511876 -3.50474864 7.31307108 -3.5 5.8125 C-3.50257812 4.9978125 -3.50515625 4.183125 -3.5078125 3.34375 C-3.31453709 0.38777309 -2.94403635 0.3873732 0 0 Z "
        fill="#BC8C71" transform="translate(64.375,71.6875)" />
        <path d="M0 0 C1.8125 0.8125 1.8125 0.8125 2.8125 2.8125 C2.53008117 5.1525417 2.19999213 7.48754723 1.8125 9.8125 C-0.5 10.5 -0.5 10.5 -3.1875 10.8125 C-5 9.6875 -5 9.6875 -6.1875 7.8125 C-6.625 5.3125 -6.625 5.3125 -6.1875 2.8125 C-4.10120395 0.5771828 -3.0905396 -0.26490339 0 0 Z "
        fill="#B07B62" transform="translate(16.1875,72.1875)" />
        <path d="M0 0 C0.556875 0.7425 1.11375 1.485 1.6875 2.25 C3.93727787 4.92541152 6.2309174 6.88675275 9 9 C9.66 9.66 10.32 10.32 11 11 C7.37 11 3.74 11 0 11 C0 7.37 0 3.74 0 0 Z " fill="#050506" transform="translate(0,117)" />
        <path d="M0 0 C3.63 0 7.26 0 11 0 C11 3.63 11 7.26 11 11 C10.443125 10.2575 9.88625 9.515 9.3125 8.75 C7.06272213 6.07458848 4.7690826 4.11324725 2 2 C1.34 1.34 0.68 0.68 0 0 Z " fill="#010001" transform="translate(117,0)" />
        <path d="M0 0 C0.33 0 0.66 0 1 0 C1 3.63 1 7.26 1 11 C-2.63 11 -6.26 11 -10 11 C-8.68 10.01 -7.36 9.02 -6 8 C-3.28406649 5.52370768 -1.45167587 3.38724369 0 0 Z " fill="#030308" transform="translate(127,117)" />
        <path d="M0 0 C3.63 0 7.26 0 11 0 C9.68 0.99 8.36 1.98 7 3 C4.28605595 5.54946259 2.26183654 7.98421795 0 11 C0 7.37 0 3.74 0 0 Z " fill="#010102" transform="translate(0,0)" />
        <path d="M0 0 C3.96 0 7.92 0 12 0 C12 0.99 12 1.98 12 3 C8.32653229 5.44897847 6.33643601 5.31537716 2 5 C1.34 4.34 0.68 3.68 0 3 C0 2.01 0 1.02 0 0 Z " fill="#3B3D4A" transform="translate(34,84)" />
    </symbol>
    <symbol id="SAB00900" viewBox="0 0 1024 1024">
        <path d="M0 0 C5.74631966 3.41023826 11.51557275 6.78054602 17.2890625 10.14453125 C18.28711914 10.72605957 19.28517578 11.30758789 20.31347656 11.90673828 C22.33616958 13.0849586 24.35895629 14.2630181 26.38183594 15.44091797 C31.39412063 18.36031148 36.40397566 21.28386811 41.4140625 24.20703125 C43.41405069 25.37371816 45.4140507 26.54038482 47.4140625 27.70703125 C67.4140625 39.37369792 87.4140625 51.04036458 107.4140625 62.70703125 C108.40365967 63.28428955 109.39325684 63.86154785 110.4128418 64.45629883 C112.41693441 65.62536644 114.42100335 66.79447464 116.42504883 67.96362305 C121.36224045 70.84388521 126.29981405 73.7234879 131.23828125 76.6015625 C142.75896742 83.31682877 154.26906723 90.04985532 165.77142334 96.79644775 C174.08426191 101.67200246 182.40155731 106.53976622 190.7265625 111.39453125 C191.69287598 111.95825439 192.65918945 112.52197754 193.65478516 113.1027832 C198.63533046 116.00733566 203.61866691 118.90698304 208.60546875 121.80078125 C213.62668509 124.7158423 218.63907224 127.6455691 223.64550781 130.5859375 C225.43346102 131.6328519 227.22428922 132.6748787 229.01855469 133.7109375 C239.30146119 139.65163279 248.01236004 145.77943757 256.4140625 154.20703125 C257.13722656 154.87089844 257.86039063 155.53476563 258.60546875 156.21875 C276.05015861 172.50273643 287.19651773 198.50104472 288.5271554 222.22321415 C288.70569689 227.84845169 288.66491025 233.47527066 288.64111328 239.10253906 C288.64054817 240.98605849 288.64086767 242.86957836 288.64199829 244.75309753 C288.64256891 249.83284267 288.630862 254.91249213 288.61685038 259.99221516 C288.60429422 265.31330688 288.60316868 270.63440112 288.60079956 275.95550537 C288.5945991 286.01680305 288.57820777 296.07805694 288.55810058 306.13933539 C288.53569684 317.60009081 288.52473692 329.06084839 288.51470971 340.52162027 C288.4938402 364.08344815 288.45869225 387.64523724 288.4140625 411.20703125 C289.35231369 411.19678925 290.29056488 411.18654724 291.25724792 411.17599487 C292.50033218 411.16802887 293.74341644 411.16006287 295.02416992 411.15185547 C296.86467171 411.13649246 296.86467171 411.13649246 298.74235535 411.12081909 C304.2116879 411.24923973 309.38921256 412.19172494 314.7265625 413.33203125 C315.80325195 413.55648926 316.87994141 413.78094727 317.98925781 414.01220703 C345.16002938 419.91096451 369.14774895 432.63609273 384.6640625 456.39453125 C400.06825206 482.65945244 398.53909026 509.8630869 394.38671875 538.9296875 C393.72667545 543.73473879 393.0987319 548.53759404 392.609375 553.36328125 C392.44912842 554.8937207 392.44912842 554.8937207 392.28564453 556.45507812 C392.4715177 560.43827649 394.15174012 562.54417865 396.87109375 565.328125 C402.43748547 572.10643998 401.0624954 582.9492383 400.4140625 591.20703125 C399.27847022 600.39004192 397.88703125 610.96938999 390.4140625 617.20703125 C387.63464729 619.12235892 384.83510564 620.89517818 381.90234375 622.56640625 C377.8035479 625.26890901 376.16530867 628.20864124 375.01953125 632.91796875 C374.78967529 633.82619385 374.55981934 634.73441895 374.32299805 635.67016602 C374.08492432 636.63108154 373.84685059 637.59199707 373.6015625 638.58203125 C369.13452493 655.61061716 362.40294898 668.92063706 351.0390625 682.45703125 C343.10168484 692.33922456 343.73345787 702.52932226 344.6953125 714.79296875 C346.7604529 732.46580485 354.26098358 748.10086889 367.4140625 760.20703125 C373.62027372 764.94013506 380.125254 768.9762651 387.0390625 772.58203125 C387.98998779 773.07823975 388.94091309 773.57444824 389.9206543 774.08569336 C407.615991 783.07308685 426.19917985 790.30765006 444.51757812 797.91015625 C491.63271181 817.46966411 525.33184946 846.22751747 545.4140625 894.20703125 C553.34019341 914.11093134 562.12876434 941.87719045 556.61328125 963.3203125 C552.92731372 971.46490743 546.29524631 977.27279411 538.1015625 980.64453125 C536.55145748 981.20117122 534.98912893 981.72553426 533.4140625 982.20703125 C532.87336166 982.38352319 532.33266082 982.56001514 531.7755751 982.74185532 C528.3176606 983.4230029 524.87811213 983.34805515 521.36814213 983.34125233 C520.54687189 983.34360456 519.72560166 983.34595679 518.87944445 983.3483803 C516.10964434 983.35507153 513.33989113 983.35461204 510.57008362 983.35420227 C508.5712427 983.35750083 506.57240244 983.36122638 504.57356304 983.36534375 C499.06653255 983.37537299 493.55951295 983.37908204 488.05247462 983.38173306 C482.11835747 983.38563343 476.18424897 983.39521202 470.25013733 983.40394592 C456.58913173 983.42278412 442.92812458 983.43296809 429.26710956 983.4414066 C422.51497715 983.44561361 415.76284562 983.45083557 409.01071396 983.45609113 C385.89364504 983.4739827 362.77657588 983.48897773 339.65950108 983.49641132 C338.20813918 983.49688608 336.75677728 983.49736197 335.30541539 983.49783899 C334.22580399 983.49819355 334.22580399 983.49819355 333.12438225 983.49855528 C329.47785965 983.49975647 325.83133705 983.50097192 322.18481445 983.50219727 C321.09932125 983.50255749 321.09932125 983.50255749 319.99189889 983.50292499 C296.5375946 983.51081507 273.08334093 983.53424017 249.62905874 983.56675321 C224.82755327 983.60107097 200.02607741 983.62076434 175.2245478 983.62405556 C172.50042115 983.6244731 169.77629452 983.62495266 167.05216789 983.62547874 C166.04604494 983.62566353 166.04604494 983.62566353 165.01959628 983.62585205 C154.90354372 983.62803766 144.78754417 983.64132412 134.6715107 983.66051674 C123.15865206 983.68222074 111.64588586 983.69027561 100.13300908 983.68054996 C94.26005073 983.67600432 88.3872831 983.67790714 82.51435089 983.6973114 C77.13330838 983.71493667 71.75259583 983.7139502 66.37154984 983.69841411 C64.42932043 983.69603709 62.48706821 983.70036641 60.54487366 983.71224276 C47.07024307 983.78950652 34.16704452 983.49214759 23.35546875 974.2734375 C16.22597596 966.68490292 14.18524146 959.56657056 14.28027344 949.44873047 C14.48530718 944.48077785 15.18594703 939.66326711 16.0390625 934.76953125 C16.2158252 933.73965088 16.39258789 932.70977051 16.57470703 931.64868164 C22.45098342 899.03909851 35.79040628 869.3536427 57.4140625 844.20703125 C58.01992188 843.47871094 58.62578125 842.75039063 59.25 842 C63.27203619 837.24089382 67.59908602 833.15437398 72.4140625 829.20703125 C72.90261719 828.80081543 73.39117188 828.39459961 73.89453125 827.97607422 C94.62337815 810.81705598 118.40094362 801.47866355 143.09259033 791.31384277 C157.85870539 785.2325061 172.39499166 778.88665979 186.6015625 771.58203125 C187.45105469 771.15075928 188.30054688 770.7194873 189.17578125 770.27514648 C205.10945685 761.91910597 217.95704983 749.23536544 223.69848633 731.9296875 C226.5239507 722.85440158 227.61016198 714.24928524 227.6640625 704.76953125 C227.6846875 703.86654297 227.7053125 702.96355469 227.7265625 702.03320312 C227.77870478 693.03214222 225.83930111 687.24642256 219.7265625 680.51953125 C214.43953024 674.51605933 210.45878532 668.096939 206.4140625 661.20703125 C205.7540625 660.21703125 205.0940625 659.22703125 204.4140625 658.20703125 C203.87330078 658.52752441 203.33253906 658.84801758 202.77539062 659.17822266 C189.03079132 667.32071684 175.25177372 675.4021409 161.44628906 683.44091797 C156.4340044 686.36031147 151.42413463 689.28384293 146.4140625 692.20703125 C140.47327274 695.67293357 134.53223824 699.13841211 128.58984375 702.6015625 C117.68927206 708.95537167 106.79729293 715.32358082 95.9140625 721.70703125 C84.06414801 728.65748058 72.20281001 735.58808897 60.33349609 742.50537109 C55.3595507 745.40455151 50.3868808 748.30591817 45.4140625 751.20703125 C43.4140684 752.37370803 41.41406841 753.54037471 39.4140625 754.70703125 C37.9290625 755.57328125 37.9290625 755.57328125 36.4140625 756.45703125 C33.4140625 758.20703125 30.4140625 759.95703125 27.4140625 761.70703125 C26.4238208 762.28469238 25.4335791 762.86235352 24.41333008 763.45751953 C22.41584234 764.62268007 20.41828388 765.78771938 18.4206543 766.95263672 C13.38162624 769.89135089 8.34389306 772.83224456 3.30859375 775.77734375 C-1.68488505 778.69746938 -6.6831349 781.60928678 -11.68408203 784.51660156 C-13.60877266 785.63779944 -15.53164844 786.76211895 -17.45263672 787.88964844 C-49.01944963 806.41716248 -81.49235464 815.79861413 -117.78320312 806.65332031 C-138.03339657 801.16250651 -155.89540092 789.59604974 -173.73388672 778.90722656 C-178.62246326 775.99299552 -183.54207609 773.13224873 -188.4609375 770.26953125 C-189.95717651 769.39784302 -189.95717651 769.39784302 -191.48364258 768.50854492 C-193.50687254 767.32986155 -195.53022892 766.15139515 -197.55371094 764.97314453 C-202.56599563 762.05375102 -207.57585066 759.13019439 -212.5859375 756.20703125 C-214.58592569 755.04034434 -216.5859257 753.87367768 -218.5859375 752.70703125 C-238.5859375 741.04036458 -258.5859375 729.37369792 -278.5859375 717.70703125 C-279.57553467 717.12977295 -280.56513184 716.55251465 -281.5847168 715.95776367 C-283.58880941 714.78869606 -285.59287835 713.61958786 -287.59692383 712.45043945 C-292.53411545 709.57017729 -297.47168905 706.6905746 -302.41015625 703.8125 C-313.93084242 697.09723373 -325.44094223 690.36420718 -336.94329834 683.61761475 C-348.17423755 677.03056773 -359.41733363 670.46456186 -370.66650391 663.90869141 C-375.6404493 661.00951099 -380.6131192 658.10814433 -385.5859375 655.20703125 C-387.5859316 654.04035447 -389.58593159 652.87368779 -391.5859375 651.70703125 C-395.5859375 649.37369792 -399.5859375 647.04036458 -403.5859375 644.70703125 C-404.5766626 644.12912842 -405.5673877 643.55122559 -406.58813477 642.95581055 C-408.58088144 641.79333441 -410.57355764 640.63073746 -412.56616211 639.46801758 C-417.67655612 636.48622286 -422.78829298 633.5067693 -427.90234375 630.53125 C-433.8016078 627.09791037 -439.69622061 623.65672257 -445.5859375 620.20703125 C-446.39611328 619.73297852 -447.20628906 619.25892578 -448.04101562 618.77050781 C-450.16342603 617.52561499 -452.2818037 616.27421374 -454.3984375 615.01953125 C-454.99664307 614.66914795 -455.59484863 614.31876465 -456.21118164 613.95776367 C-461.72128943 610.66969787 -461.72128943 610.66969787 -463.5859375 608.20703125 C-463.96313566 605.37369245 -463.96313566 605.37369245 -463.96625423 601.84424496 C-463.97091415 601.19277554 -463.97557407 600.54130613 -463.9803752 599.87009522 C-463.99239318 597.67165381 -463.98290401 595.47382271 -463.97361755 593.27537537 C-463.97778762 591.68931308 -463.98326333 590.10325378 -463.98993737 588.51720005 C-464.00445592 584.14626111 -464.0001272 579.7755097 -463.99277055 575.40456021 C-463.9880564 570.69459496 -464.0005338 565.98467132 -464.01078796 561.27471924 C-464.02802143 552.03872624 -464.02880581 542.80280114 -464.02357506 533.56679624 C-464.01953713 526.05414256 -464.02097246 518.54150899 -464.02632332 511.02885628 C-464.02707174 509.96039496 -464.02782016 508.89193364 -464.02859126 507.79109471 C-464.03012275 505.62048347 -464.03166109 503.44987223 -464.03320623 501.279261 C-464.0469501 480.89866674 -464.04148251 460.5181108 -464.03002102 440.1375174 C-464.02010777 421.51653398 -464.03299287 402.8956502 -464.05695521 384.27468216 C-464.0813823 365.14790002 -464.09094391 346.02116421 -464.08430248 326.8943668 C-464.08081556 316.15931466 -464.08300638 305.42433895 -464.10055351 294.68929863 C-464.11532152 285.54075732 -464.11585216 276.39234613 -464.0984826 267.24380725 C-464.090004 262.58133653 -464.0877451 257.91909775 -464.10313416 253.25663948 C-464.11708796 248.97563824 -464.11208262 244.69506527 -464.09289492 240.41408814 C-464.08916672 238.87752975 -464.09196335 237.34093617 -464.10250657 235.80440944 C-464.27155077 209.24798528 -455.07456649 184.01681819 -438.5859375 163.20703125 C-437.5959375 162.21703125 -437.5959375 162.21703125 -436.5859375 161.20703125 C-435.5753125 161.37203125 -434.5646875 161.53703125 -433.5234375 161.70703125 C-427.15141162 160.89788511 -424.4222174 156.0478778 -420.5859375 151.20703125 C-416.65140848 146.28613005 -412.44552409 142.20623202 -407.5859375 138.20703125 C-406.28269531 137.11261719 -406.28269531 137.11261719 -404.953125 135.99609375 C-395.77501316 128.59129856 -385.77412622 122.79043575 -375.56689453 116.92333984 C-371.60127204 114.64010265 -367.65222069 112.32897225 -363.70239258 110.01855469 C-360.68883956 108.25661118 -357.67294291 106.49874901 -354.65625 104.7421875 C-348.63092142 101.23370704 -342.60820756 97.72075834 -336.5859375 94.20703125 C-334.58594931 93.04034434 -332.5859493 91.87367768 -330.5859375 90.70703125 C-329.5959375 90.12953125 -328.6059375 89.55203125 -327.5859375 88.95703125 C-294.5859375 69.70703125 -294.5859375 69.70703125 -291.5871582 67.95776367 C-289.58306559 66.78869606 -287.57899665 65.61958786 -285.57495117 64.45043945 C-280.63775955 61.57017729 -275.70018595 58.6905746 -270.76171875 55.8125 C-259.86114706 49.45869083 -248.96916793 43.09048168 -238.0859375 36.70703125 C-226.23602301 29.75658192 -214.37468501 22.82597353 -202.50537109 15.90869141 C-197.5314257 13.00951099 -192.5587558 10.10814433 -187.5859375 7.20703125 C-185.5859434 6.04035447 -183.58594341 4.87368779 -181.5859375 3.70703125 C-180.1009375 2.84078125 -180.1009375 2.84078125 -178.5859375 1.95703125 C-175.5859375 0.20703125 -172.5859375 -1.54296875 -169.5859375 -3.29296875 C-168.5949707 -3.87111328 -167.60400391 -4.44925781 -166.58300781 -5.04492188 C-164.59305699 -6.20556442 -162.60282481 -7.36572471 -160.61230469 -8.52539062 C-155.45608011 -11.53023078 -150.30575529 -14.54457036 -145.1640625 -17.57421875 C-144.10445313 -18.19683594 -143.04484375 -18.81945312 -141.953125 -19.4609375 C-139.95126645 -20.6374684 -137.95111365 -21.81690916 -135.953125 -23 C-84.27611959 -53.32586172 -45.71161658 -27.14597648 0 0 Z "
        fill="#F7AE28" transform="translate(464.5859375,38.79296875)" />
        <path d="M0 0 C22.92265367 3.7276091 46.27730032 22.3287642 65.9934082 34.06811523 C73.62598943 38.60993111 81.29801075 43.07702368 89 47.5 C97.87533033 52.59758091 106.70385021 57.76698376 115.5 63 C125.43504115 68.90933413 135.41651105 74.7307911 145.43701172 80.49389648 C155.66111336 86.37418763 165.84917774 92.31508986 176.03222656 98.26611328 C181.01990957 101.1801084 186.01008705 104.08982568 191 107 C193.0000118 108.16664643 195.00001181 109.33331309 197 110.5 C197.99 111.0775 198.98 111.655 200 112.25 C203 114 206 115.75 209 117.5 C210.48439575 118.36588745 210.48439575 118.36588745 211.9987793 119.24926758 C214.00287191 120.41833519 216.00694085 121.58744339 218.01098633 122.7565918 C222.94817795 125.63685396 227.88575155 128.51645665 232.82421875 131.39453125 C244.34490492 138.10979752 255.85500473 144.84282407 267.35736084 151.5894165 C275.6701993 156.46497114 283.98746969 161.33277819 292.3125 166.1875 C293.27518799 166.74904785 294.23787598 167.3105957 295.22973633 167.88916016 C300.27309405 170.83009384 305.3188842 173.76678231 310.3671875 176.69921875 C328.56075862 187.2737963 328.56075862 187.2737963 335.9375 191.75 C336.91589844 192.34296875 337.89429688 192.9359375 338.90234375 193.546875 C341 195 341 195 342 197 C342.09646144 199.42896118 342.13197176 201.82912 342.12304783 204.25829506 C342.12420167 205.01868253 342.12535552 205.77907001 342.12654433 206.56249952 C342.12921319 209.13711626 342.12468661 211.71167177 342.12025452 214.2862854 C342.12069016 216.14004702 342.12156495 217.99380859 342.12284368 219.84756982 C342.12508993 224.96236556 342.12106559 230.07714054 342.11606562 235.19193363 C342.11176316 240.69978906 342.1132074 246.20764324 342.1139679 251.71549988 C342.11449326 261.26514592 342.11134515 270.81478515 342.10573006 280.36442947 C342.09761676 294.17175922 342.09500001 307.97908566 342.09374207 321.78641753 C342.09155128 344.1857385 342.08489903 366.58505615 342.07543945 388.984375 C342.06625877 410.7483722 342.05917332 432.51236844 342.05493164 454.27636719 C342.05480011 454.94693524 342.05466859 455.61750329 342.05453308 456.30839159 C342.05321458 463.04235891 342.05193877 469.77632623 342.05069422 476.51029357 C342.04024871 533.00686493 342.02259839 589.50343227 342 646 C339.59170268 645.84027901 337.1834205 645.68033525 334.77514648 645.52026367 C333.75733219 645.4527956 333.75733219 645.4527956 332.71895599 645.38396454 C303.40615118 643.43415872 281.77333498 630.59679682 256.88427734 615.71630859 C251.9831185 612.79984112 247.05394419 609.93167658 242.125 607.0625 C241.12766846 606.48145508 240.13033691 605.90041016 239.1027832 605.30175781 C237.07938462 604.12300311 235.05586551 602.94445528 233.03222656 601.76611328 C228.01994187 598.84671977 223.01008684 595.92316314 218 593 C216.00001181 591.83331309 214.0000118 590.66664643 212 589.5 C192 577.83333333 172 566.16666667 152 554.5 C151.01040283 553.9227417 150.02080566 553.3454834 149.0012207 552.75073242 C146.99712809 551.58166481 144.99305915 550.41255661 142.98901367 549.2434082 C138.05182205 546.36314604 133.11424845 543.48354335 128.17578125 540.60546875 C116.65509508 533.89020248 105.14499527 527.15717593 93.64263916 520.4105835 C82.41169995 513.82353648 71.16860387 507.25753061 59.91943359 500.70166016 C54.9454882 497.80247974 49.9728183 494.90111308 45 492 C43.0000059 490.83332322 41.00000591 489.66665654 39 488.5 C35 486.16666667 31 483.83333333 27 481.5 C26.0092749 480.92209717 25.0185498 480.34419434 23.99780273 479.7487793 C22.00505606 478.58630316 20.01237986 477.42370621 18.01977539 476.26098633 C12.90938138 473.27919161 7.79764452 470.29973805 2.68359375 467.32421875 C-3.2156703 463.89087912 -9.11028311 460.44969132 -15 457 C-16.21526367 456.2889209 -16.21526367 456.2889209 -17.45507812 455.56347656 C-19.57748853 454.31858374 -21.6958662 453.06718249 -23.8125 451.8125 C-24.41070557 451.4621167 -25.00891113 451.1117334 -25.62524414 450.75073242 C-31.07379743 447.49939825 -31.07379743 447.49939825 -33 445 C-33.37489682 442.37529814 -33.37489682 442.37529814 -33.37473011 439.1453495 C-33.38193665 437.9157216 -33.3891432 436.6860937 -33.39656812 435.41920435 C-33.38939018 434.04725987 -33.38193124 432.67531684 -33.3742218 431.30337524 C-33.37696078 429.85144553 -33.38101146 428.39951779 -33.38626546 426.947595 C-33.39688727 422.94727996 -33.38870048 418.94718723 -33.37751496 414.94688177 C-33.36869523 410.63564408 -33.37711056 406.3244362 -33.38337708 402.01319885 C-33.39288449 393.55825004 -33.38624581 385.10338635 -33.37411413 376.64844383 C-33.36049829 366.79124605 -33.36213201 356.9340686 -33.36424746 347.07686381 C-33.36744097 329.46951936 -33.35575493 311.86221528 -33.33618164 294.25488281 C-33.31722816 277.20050829 -33.31008002 260.14618118 -33.31567383 243.09179688 C-33.32174908 224.51470587 -33.32151867 205.93763576 -33.310188 187.36054647 C-33.30898078 185.37377064 -33.3077748 183.3869948 -33.30657005 181.40021896 C-33.30596651 180.42279974 -33.30536298 179.44538051 -33.30474115 178.43834252 C-33.30087828 171.5832886 -33.30124949 164.7282425 -33.3031559 157.87318802 C-33.30529143 149.49367887 -33.29995346 141.11421103 -33.28554235 132.73471345 C-33.27835849 128.46686119 -33.27416888 124.19906869 -33.27878571 119.93121147 C-33.30125113 96.07301328 -33.27023263 72.9508258 -26 50 C-25.78891602 49.32694824 -25.57783203 48.65389648 -25.36035156 47.96044922 C-19.80178331 30.73231357 -10.85190035 14.44240565 0 0 Z "
        fill="#FEA513" transform="translate(34,202)" />
        <path d="M0 0 C18.6287075 14.00357385 30.2326444 33.8010036 34.50756836 56.60913086 C36.53446913 73.31012316 34.3147036 89.69355915 31.95288086 106.22631836 C31.29283756 111.03136965 30.66489401 115.8342249 30.17553711 120.65991211 C30.06870605 121.68020508 29.961875 122.70049805 29.85180664 123.75170898 C30.03767981 127.73490735 31.71790223 129.84080951 34.43725586 132.62475586 C40.00364758 139.40307084 38.62865751 150.24586916 37.98022461 158.50366211 C36.84463233 167.68667278 35.45319336 178.26602085 27.98022461 184.50366211 C25.2008094 186.41898978 22.40126775 188.19180903 19.46850586 189.86303711 C15.36971001 192.56553987 13.73147078 195.5052721 12.58569336 200.21459961 C12.24090942 201.57693726 12.24090942 201.57693726 11.88916016 202.96679688 C11.65108643 203.9277124 11.4130127 204.88862793 11.16772461 205.87866211 C6.70068704 222.90724802 -0.03088891 236.21726792 -11.39477539 249.75366211 C-19.33215305 259.63585542 -18.70038002 269.82595312 -17.73852539 282.08959961 C-15.67338499 299.76243571 -8.17285431 315.39749975 4.98022461 327.50366211 C11.18643583 332.23676592 17.69141611 336.27289596 24.60522461 339.87866211 C25.5561499 340.37487061 26.5070752 340.8710791 27.48681641 341.38232422 C45.18215311 350.36971771 63.76534196 357.60428092 82.08374023 365.20678711 C129.19887392 384.76629497 162.89801157 413.52414833 182.98022461 461.50366211 C190.90635552 481.4075622 199.69492645 509.1738213 194.17944336 530.61694336 C190.49347583 538.76153829 183.86140842 544.56942497 175.66772461 547.94116211 C174.11761959 548.49780207 172.55529104 549.02216512 170.98022461 549.50366211 C170.43952377 549.68015405 169.89882293 549.856646 169.34173721 550.03848618 C165.88382271 550.71963376 162.44427424 550.644686 158.93430424 550.63788319 C158.113034 550.64023542 157.29176377 550.64258765 156.44560656 550.64501116 C153.67580645 550.65170239 150.90605324 550.65124289 148.13624573 550.65083313 C146.13740481 550.65413169 144.13856455 550.65785724 142.13972515 550.66197461 C136.63269465 550.67200384 131.12567506 550.6757129 125.61863673 550.67836392 C119.68451957 550.68226429 113.75041107 550.69184288 107.81629944 550.70057678 C94.15529384 550.71941498 80.49428669 550.72959895 66.83327167 550.73803746 C60.08113925 550.74224446 53.32900773 550.74746643 46.57687607 550.75272199 C23.45980715 550.77061356 0.34273799 550.78560859 -22.77433681 550.79304218 C-24.22569871 550.79351694 -25.67706061 550.79399283 -27.1284225 550.79446984 C-28.20803391 550.79482441 -28.20803391 550.79482441 -29.30945564 550.79518614 C-32.95597824 550.79638733 -36.60250084 550.79760278 -40.24902344 550.79882812 C-41.33451664 550.79918835 -41.33451664 550.79918835 -42.441939 550.79955585 C-65.89624329 550.80744593 -89.35049696 550.83087103 -112.80477915 550.86338407 C-137.60628462 550.89770183 -162.40776049 550.9173952 -187.20929009 550.92068642 C-189.93341674 550.92110395 -192.65754337 550.92158352 -195.38167 550.9221096 C-196.38779295 550.92229439 -196.38779295 550.92229439 -197.41424161 550.92248291 C-207.53029417 550.92466852 -217.64629372 550.93795498 -227.76232719 550.9571476 C-239.27518583 550.9788516 -250.78795203 550.98690647 -262.30082881 550.97718082 C-268.17378716 550.97263518 -274.04655479 550.974538 -279.919487 550.99394226 C-285.30052951 551.01156753 -290.68124206 551.01058106 -296.06228805 550.99504497 C-298.00451746 550.99266795 -299.94676968 550.99699727 -301.88896423 551.00887362 C-315.36359482 551.08613738 -328.26679337 550.78877845 -339.07836914 541.57006836 C-346.20786193 533.98153378 -348.24859643 526.86320142 -348.15356445 516.74536133 C-347.94853071 511.77740871 -347.24789086 506.95989797 -346.39477539 502.06616211 C-346.2180127 501.03628174 -346.04125 500.00640137 -345.85913086 498.9453125 C-339.98285447 466.33572937 -326.64343161 436.65027356 -305.01977539 411.50366211 C-304.11098633 410.41118164 -304.11098633 410.41118164 -303.18383789 409.29663086 C-299.1618017 404.53752468 -294.83475187 400.45100484 -290.01977539 396.50366211 C-289.5312207 396.09744629 -289.04266602 395.69123047 -288.53930664 395.27270508 C-267.81045974 378.11368684 -244.03289427 368.7752944 -219.34124756 358.61047363 C-204.5751325 352.52913696 -190.03884623 346.18329065 -175.83227539 338.87866211 C-174.55803711 338.23175415 -174.55803711 338.23175415 -173.25805664 337.57177734 C-157.32438104 329.21573683 -144.47678806 316.5319963 -138.73535156 299.22631836 C-135.9098872 290.15103244 -134.82367591 281.5459161 -134.76977539 272.06616211 C-134.73883789 270.71167969 -134.73883789 270.71167969 -134.70727539 269.32983398 C-134.65513311 260.32877308 -136.59453679 254.54305342 -142.70727539 247.81616211 C-155.3792316 233.17007778 -161.25768135 216.62532115 -165.41430664 197.87866211 C-166.09307356 195.21614412 -166.71792932 192.93486992 -168.01977539 190.50366211 C-170.3646893 189.28739992 -170.3646893 189.28739992 -173.01977539 188.50366211 C-174.56981658 187.65937323 -176.09209256 186.76210425 -177.58227539 185.81616211 C-178.32606445 185.35854492 -179.06985352 184.90092773 -179.83618164 184.42944336 C-184.88647239 179.97543023 -186.81425776 173.99776781 -188.26977539 167.62866211 C-188.52126343 166.53533569 -188.52126343 166.53533569 -188.77783203 165.41992188 C-190.95164415 155.10122146 -192.14743645 143.05172064 -187.01977539 133.50366211 C-185.72991335 131.7915238 -184.44377979 130.12733661 -183.00805664 128.53491211 C-180.28422748 122.93652807 -182.37459474 115.34141978 -183.39477539 109.44116211 C-183.67040784 107.74859894 -183.94513859 106.05588869 -184.21899414 104.36303711 C-184.69247892 101.47607177 -185.17468678 98.59109321 -185.66430664 95.70678711 C-189.69074918 69.63629588 -187.19108095 42.7744014 -172.01977539 20.50366211 C-168.69905862 16.15598529 -164.92649758 12.32222132 -161.01977539 8.50366211 C-159.84995117 7.30290039 -159.84995117 7.30290039 -158.65649414 6.07788086 C-119.65442404 -31.87539408 -42.5781002 -30.79657095 0 0 Z "
        fill="#4076B8" transform="translate(827.019775390625,471.496337890625)" />
        <path d="M0 0 C5.74631966 3.41023826 11.51557275 6.78054602 17.2890625 10.14453125 C18.28711914 10.72605957 19.28517578 11.30758789 20.31347656 11.90673828 C22.33616958 13.0849586 24.35895629 14.2630181 26.38183594 15.44091797 C31.39412063 18.36031148 36.40397566 21.28386811 41.4140625 24.20703125 C43.41405069 25.37371816 45.4140507 26.54038482 47.4140625 27.70703125 C67.4140625 39.37369792 87.4140625 51.04036458 107.4140625 62.70703125 C108.40365967 63.28428955 109.39325684 63.86154785 110.4128418 64.45629883 C112.41693441 65.62536644 114.42100335 66.79447464 116.42504883 67.96362305 C121.36224045 70.84388521 126.29981405 73.7234879 131.23828125 76.6015625 C142.75896742 83.31682877 154.26906723 90.04985532 165.77142334 96.79644775 C174.08426191 101.67200246 182.40155731 106.53976622 190.7265625 111.39453125 C191.69287598 111.95825439 192.65918945 112.52197754 193.65478516 113.1027832 C198.63533046 116.00733566 203.61866691 118.90698304 208.60546875 121.80078125 C213.62668509 124.7158423 218.63907224 127.6455691 223.64550781 130.5859375 C225.43346102 131.6328519 227.22428922 132.6748787 229.01855469 133.7109375 C239.30146119 139.65163279 248.01236004 145.77943757 256.4140625 154.20703125 C257.13722656 154.87089844 257.86039063 155.53476563 258.60546875 156.21875 C276.05015861 172.50273643 287.19651773 198.50104472 288.5271554 222.22321415 C288.70569689 227.84845169 288.66491025 233.47527066 288.64111328 239.10253906 C288.64054817 240.98605849 288.64086767 242.86957836 288.64199829 244.75309753 C288.64256891 249.83284267 288.630862 254.91249213 288.61685038 259.99221516 C288.60429422 265.31330688 288.60316868 270.63440112 288.60079956 275.95550537 C288.5945991 286.01680305 288.57820777 296.07805694 288.55810058 306.13933539 C288.53569684 317.60009081 288.52473692 329.06084839 288.51470971 340.52162027 C288.4938402 364.08344815 288.45869225 387.64523724 288.4140625 411.20703125 C288.0840625 411.20703125 287.7540625 411.20703125 287.4140625 411.20703125 C287.41167415 410.24864633 287.40928579 409.2902614 287.40682507 408.30283451 C287.34788175 384.92189107 287.27190802 361.54104945 287.17834759 338.16021824 C287.13349069 326.85315957 287.09405299 315.54613168 287.06762695 304.23901367 C287.04456474 294.37720507 287.0110757 284.51549473 286.96536094 274.65376419 C286.94153912 269.43798547 286.9227383 264.2223034 286.91644859 259.00647163 C286.91034739 254.08411303 286.89016862 249.16200136 286.85978699 244.23973465 C286.85108667 242.44566636 286.84726728 240.65156569 286.84905434 238.85747719 C286.85930461 223.80102502 285.74875368 209.02060376 279.7265625 195.01953125 C279.38061035 194.18711914 279.0346582 193.35470703 278.67822266 192.49707031 C275.49455343 185.02487059 271.75144439 178.07227932 267.4140625 171.20703125 C266.66189453 169.88638672 266.66189453 169.88638672 265.89453125 168.5390625 C264.54320751 166.37619998 263.41629377 164.78126714 261.4140625 163.20703125 C242.20660235 161.03844704 215.33006384 182.77631189 199.83349609 192.0168457 C192.00096562 196.68632355 184.13189624 201.28639019 176.2265625 205.83203125 C158.44724975 216.05823271 140.74799654 226.42020006 123.05615234 236.79672241 C111.82540316 243.38368998 100.58249006 249.94960339 89.33349609 256.50537109 C84.3595507 259.40455151 79.3868808 262.30591817 74.4140625 265.20703125 C72.4140684 266.37370803 70.41406841 267.54037471 68.4140625 268.70703125 C66.9290625 269.57328125 66.9290625 269.57328125 65.4140625 270.45703125 C-39.5859375 331.70703125 -39.5859375 331.70703125 -42.59057617 333.45922852 C-44.57570551 334.61755772 -46.56025086 335.77688838 -48.54418945 336.93725586 C-53.76718111 339.99026744 -59.0013939 343.02145695 -64.25390625 346.0234375 C-65.89069336 346.96413086 -65.89069336 346.96413086 -67.56054688 347.92382812 C-69.64799322 349.12299943 -71.73896246 350.31606644 -73.83398438 351.50195312 C-78.72516335 354.32031531 -82.86926984 356.93326137 -86.5859375 361.20703125 C-89.713438 360.16453108 -90.36078128 359.44639275 -92.5859375 357.20703125 C-94.12461411 356.20851541 -95.69536516 355.25869474 -97.28515625 354.34375 C-98.23414795 353.79420654 -99.18313965 353.24466309 -100.16088867 352.6784668 C-101.18802979 352.08976807 -102.2151709 351.50106934 -103.2734375 350.89453125 C-105.47141687 349.62380637 -107.66933183 348.35297007 -109.8671875 347.08203125 C-110.98996094 346.43492187 -112.11273438 345.7878125 -113.26953125 345.12109375 C-118.28060388 342.22895525 -123.27713876 339.31209334 -128.2734375 336.39453125 C-129.24885498 335.82565186 -130.22427246 335.25677246 -131.22924805 334.6706543 C-139.80832568 329.66613464 -148.37618359 324.64257059 -156.94329834 319.61761475 C-168.17423755 313.03056773 -179.41733363 306.46456186 -190.66650391 299.90869141 C-195.6404493 297.00951099 -200.6131192 294.10814433 -205.5859375 291.20703125 C-207.5859316 290.04035447 -209.58593159 288.87368779 -211.5859375 287.70703125 C-231.5859375 276.04036458 -251.5859375 264.37369792 -271.5859375 252.70703125 C-272.57553467 252.12977295 -273.56513184 251.55251465 -274.5847168 250.95776367 C-276.58880941 249.78869606 -278.59287835 248.61958786 -280.59692383 247.45043945 C-285.53411545 244.57017729 -290.47168905 241.6905746 -295.41015625 238.8125 C-306.93084242 232.09723373 -318.44094223 225.36420718 -329.94329834 218.61761475 C-340.20350017 212.59991395 -350.4729318 206.59823821 -360.75 200.609375 C-365.74577 197.6981165 -370.73744162 194.77989562 -375.72851562 191.8605957 C-379.71752304 189.53058295 -383.71200299 187.21002374 -387.70605469 184.88867188 C-390.50933555 183.25176118 -393.30214904 181.59813678 -396.09375 179.94140625 C-407.26056089 173.36754438 -418.50611839 167.90090382 -430.5859375 163.20703125 C-430.823125 163.72394531 -431.0603125 164.24085938 -431.3046875 164.7734375 C-432.66004567 167.34779158 -434.21597459 169.74712278 -435.80957031 172.17895508 C-451.83703823 196.86088779 -461.25208303 223.77024287 -462.5859375 253.20703125 C-462.9159375 253.20703125 -463.2459375 253.20703125 -463.5859375 253.20703125 C-464.43229828 217.84868207 -464.43229828 217.84868207 -459.5859375 203.20703125 C-459.36631348 202.52302246 -459.14668945 201.83901367 -458.92041016 201.13427734 C-454.20718584 186.76778255 -447.39569473 172.01678848 -436.5859375 161.20703125 C-435.5753125 161.37203125 -434.5646875 161.53703125 -433.5234375 161.70703125 C-427.15141162 160.89788511 -424.4222174 156.0478778 -420.5859375 151.20703125 C-416.65140848 146.28613005 -412.44552409 142.20623202 -407.5859375 138.20703125 C-406.28269531 137.11261719 -406.28269531 137.11261719 -404.953125 135.99609375 C-395.77501316 128.59129856 -385.77412622 122.79043575 -375.56689453 116.92333984 C-371.60127204 114.64010265 -367.65222069 112.32897225 -363.70239258 110.01855469 C-360.68883956 108.25661118 -357.67294291 106.49874901 -354.65625 104.7421875 C-348.63092142 101.23370704 -342.60820756 97.72075834 -336.5859375 94.20703125 C-334.58594931 93.04034434 -332.5859493 91.87367768 -330.5859375 90.70703125 C-329.5959375 90.12953125 -328.6059375 89.55203125 -327.5859375 88.95703125 C-294.5859375 69.70703125 -294.5859375 69.70703125 -291.5871582 67.95776367 C-289.58306559 66.78869606 -287.57899665 65.61958786 -285.57495117 64.45043945 C-280.63775955 61.57017729 -275.70018595 58.6905746 -270.76171875 55.8125 C-259.86114706 49.45869083 -248.96916793 43.09048168 -238.0859375 36.70703125 C-226.23602301 29.75658192 -214.37468501 22.82597353 -202.50537109 15.90869141 C-197.5314257 13.00951099 -192.5587558 10.10814433 -187.5859375 7.20703125 C-185.5859434 6.04035447 -183.58594341 4.87368779 -181.5859375 3.70703125 C-180.1009375 2.84078125 -180.1009375 2.84078125 -178.5859375 1.95703125 C-175.5859375 0.20703125 -172.5859375 -1.54296875 -169.5859375 -3.29296875 C-168.5949707 -3.87111328 -167.60400391 -4.44925781 -166.58300781 -5.04492188 C-164.59305699 -6.20556442 -162.60282481 -7.36572471 -160.61230469 -8.52539062 C-155.45608011 -11.53023078 -150.30575529 -14.54457036 -145.1640625 -17.57421875 C-144.10445313 -18.19683594 -143.04484375 -18.81945312 -141.953125 -19.4609375 C-139.95126645 -20.6374684 -137.95111365 -21.81690916 -135.953125 -23 C-84.27611959 -53.32586172 -45.71161658 -27.14597648 0 0 Z "
        fill="#FECC45" transform="translate(464.5859375,38.79296875)" />
        <path d="M0 0 C0.78375 0.00451172 1.5675 0.00902344 2.375 0.01367188 C4.29170014 0.02535907 6.20836048 0.04329092 8.125 0.0625 C8.1952356 21.72516583 8.24805926 43.38781274 8.28043652 65.05056953 C8.29587273 75.1100865 8.31689988 85.1695325 8.35131836 95.22900391 C8.38132043 104.00191132 8.40059856 112.77476731 8.40726548 121.5477246 C8.41115951 126.18833592 8.42024258 130.8288002 8.44219017 135.46936417 C8.4627265 139.84748023 8.46879958 144.2253903 8.46432304 148.60354996 C8.46514065 150.20056278 8.47100333 151.79758333 8.48261642 153.39455414 C8.6130656 172.27778061 5.21056736 188.14005327 -6.875 203.0625 C-7.64070312 204.01962891 -7.64070312 204.01962891 -8.421875 204.99609375 C-13.41985067 210.57373155 -20.04273131 214.00504587 -26.46679688 217.68164062 C-30.15218998 219.79483846 -33.81900747 221.93967844 -37.48779297 224.08154297 C-39.53994731 225.27855153 -41.59366528 226.47288337 -43.64892578 227.66455078 C-48.72039439 230.60976515 -53.76387695 233.58892929 -58.7578125 236.6640625 C-59.67473877 237.22633545 -60.59166504 237.7886084 -61.53637695 238.36791992 C-63.26949314 239.4348581 -64.99746028 240.51021796 -66.71948242 241.5949707 C-67.48881104 242.06765381 -68.25813965 242.54033691 -69.05078125 243.02734375 C-69.72020752 243.4462085 -70.38963379 243.86507324 -71.0793457 244.29663086 C-72.875 245.0625 -72.875 245.0625 -75.875 244.0625 C-76.86641013 241.77439797 -77.65049447 239.62253111 -78.375 237.25 C-78.59003174 236.57727051 -78.80506348 235.90454102 -79.02661133 235.21142578 C-80.63928203 230.07683753 -82.00127911 224.8958541 -83.19921875 219.6484375 C-83.91227833 216.91985114 -84.53593661 214.553583 -85.875 212.0625 C-88.21991391 210.84623781 -88.21991391 210.84623781 -90.875 210.0625 C-92.42504119 209.21821112 -93.94731717 208.32094214 -95.4375 207.375 C-96.18128906 206.91738281 -96.92507813 206.45976563 -97.69140625 205.98828125 C-102.741697 201.53426812 -104.66948236 195.5566057 -106.125 189.1875 C-106.37648804 188.09417358 -106.37648804 188.09417358 -106.63305664 186.97875977 C-108.80686876 176.66005935 -110.00266106 164.61055853 -104.875 155.0625 C-103.58513796 153.3503617 -102.2990044 151.6861745 -100.86328125 150.09375 C-98.13945209 144.49536596 -100.22981935 136.90025767 -101.25 131 C-101.52563245 129.30743683 -101.8003632 127.61472658 -102.07421875 125.921875 C-102.54770353 123.03490966 -103.02991139 120.1499311 -103.51953125 117.265625 C-107.54597378 91.19513377 -105.04630556 64.33323929 -89.875 42.0625 C-86.55428323 37.71482318 -82.78172219 33.88105921 -78.875 30.0625 C-78.09511719 29.26199219 -77.31523438 28.46148437 -76.51171875 27.63671875 C-59.86118342 11.43392891 -37.07180114 5.20994779 -14.875 1.0625 C-14.01536148 0.88894485 -13.15572296 0.71538971 -12.27003479 0.53657532 C-8.14839459 -0.03896161 -4.15404947 -0.04576495 0 0 Z "
        fill="#407628" transform="translate(744.875,449.9375)" />
        <path d="M0 0 C3.59984662 0.06086807 5.93004739 1.21768686 9.04296875 2.9765625 C10.01524414 3.52352783 10.98751953 4.07049316 11.98925781 4.6340332 C13.02405273 5.22917725 14.05884766 5.82432129 15.125 6.4375 C16.1675293 7.0358667 17.21005859 7.6342334 18.28417969 8.25073242 C21.7183292 10.23691627 25.14219291 12.24012349 28.5625 14.25 C29.18516754 14.61510681 29.80783508 14.98021362 30.44937134 15.35638428 C40.37888323 21.18089773 50.23124814 27.12462587 60.0541687 33.12670898 C69.5862476 38.9469379 79.21859177 44.57728482 88.90795898 50.13208008 C93.66852668 52.86324387 98.42462351 55.59865458 103.140625 58.40625 C103.92791992 58.87377686 104.71521484 59.34130371 105.52636719 59.82299805 C107.09466131 60.7758753 108.64774256 61.75424311 110.18457031 62.75708008 C114.64733742 65.61663383 118.96453695 67.82127431 123.9415741 69.59567261 C143.31101677 76.63830912 143.31101677 76.63830912 148.125 85.4375 C152.48701795 100.10303465 153.15274432 126.36169828 146.72827148 140.5144043 C144.09399374 143.67417372 142.31137931 144.4092437 138.234375 145.02734375 C131.93123447 144.86354336 127.29428356 141.4911892 122.1390686 138.1449585 C119.70689605 136.56637101 117.24748161 135.03254758 114.789505 133.49456787 C113.50311755 132.68883759 112.21820798 131.88074332 110.93473816 131.07037354 C104.78890019 127.19519294 98.53701849 123.51526906 92.25430298 119.86752319 C89.2234806 118.10751512 86.19748618 116.3392601 83.171875 114.5703125 C82.58094559 114.22491928 81.99001617 113.87952606 81.38117981 113.52366638 C74.24229185 109.34473474 67.15709717 105.07671878 60.06982422 100.81103516 C53.58363109 96.9085624 47.08273011 93.0328262 40.5625 89.1875 C31.80175758 84.01880164 23.043576 78.84585053 14.29324341 73.6595459 C12.86072463 72.81086991 11.42784932 71.96279539 9.99459839 71.11535645 C7.97463907 69.92090866 5.95593805 68.72435999 3.9375 67.52734375 C3.33837296 67.17367233 2.73924591 66.82000092 2.1219635 66.45561218 C0.44898964 65.46179398 -1.21322246 64.44992854 -2.875 63.4375 C-3.98979736 62.93669922 -5.10459473 62.43589844 -6.25317383 61.91992188 C-9.31522637 59.02068077 -9.32972595 58.25926081 -9.63549805 54.19750977 C-9.6683696 52.00822199 -9.66651299 49.81823807 -9.63671875 47.62890625 C-9.64177177 45.89059792 -9.64177177 45.89059792 -9.64692688 44.11717224 C-9.64662793 41.66685549 -9.6313696 39.21650169 -9.60229492 36.76635742 C-9.5626786 33.01690335 -9.58156658 29.27099518 -9.60742188 25.52148438 C-9.59986151 23.14061128 -9.58890681 20.75974604 -9.57421875 18.37890625 C-9.58120285 17.25795059 -9.58818695 16.13699493 -9.59538269 14.98207092 C-9.43855579 6.3281454 -9.43855579 6.3281454 -6.39379883 3.25366211 C-5.56259521 2.65432861 -4.7313916 2.05499512 -3.875 1.4375 C-2.875 0.4375 -2.875 0.4375 0 0 Z "
        fill="#F8D892" transform="translate(38.875,527.5625)" />
        <path d="M0 0 C1.63657225 3.17453541 2.76255329 6.26958837 3.8125 9.6875 C6.94188055 19.10990493 11.18918806 25.61208147 18.01171875 32.8359375 C20 35 20 35 22 38 C17.28854116 36.62433955 13.47167429 34.65654947 9.3125 32.0625 C8.19488281 31.37285156 7.07726562 30.68320312 5.92578125 29.97265625 C1.560399 27.02937449 1.560399 27.02937449 0 25 C-0.34057617 22.36450195 -0.34057617 22.36450195 -0.29296875 19.23828125 C-0.28330078 18.12001953 -0.27363281 17.00175781 -0.26367188 15.84960938 C-0.23853516 14.68236328 -0.21339844 13.51511719 -0.1875 12.3125 C-0.17396484 11.13365234 -0.16042969 9.95480469 -0.14648438 8.74023438 C-0.11109326 5.82636589 -0.06171809 2.91341055 0 0 Z "
        fill="#FFCB43" transform="translate(1,622)" />
        <path d="M0 0 C0.33 0 0.66 0 1 0 C1.11656783 4.20809884 1.18737611 8.41577996 1.25 12.625 C1.30027344 14.40970703 1.30027344 14.40970703 1.3515625 16.23046875 C1.40701333 21.1933176 1.4488 24.98435335 -0.57421875 29.5625 C-3.49711783 32.49951937 -6.42594147 34.4339916 -10.0625 36.375 C-10.68705078 36.72949219 -11.31160156 37.08398438 -11.95507812 37.44921875 C-14.830764 39.03897893 -16.66613187 40 -20 40 C-19.57589844 39.62230469 -19.15179687 39.24460937 -18.71484375 38.85546875 C-7.58590348 28.41138635 -1.81077308 15.02556388 0 0 Z "
        fill="#407692" transform="translate(752,618)" />
    </symbol>
    <symbol id="batch" viewBox="0 0 12 12">
        <path d="M11 3.13964V10.9192C11 11.514 10.4736 11.998 9.82159 11.998H2.17841C1.52643 11.998 1 11.516 1 10.9192V1.07881C1 0.481936 1.52643 0 2.17841 0H7.57048" fill="#1773E0" />
        <path d="M6.06388 0H2.17841C1.52643 0 1 0.481936 1 1.07881V10.9212C1 11.516 1.52643 12 2.17841 12H6.06388V0Z" fill="#3086ED" />
        <path d="M11 3.13964H8.30396C7.89867 3.13964 7.57048 2.83919 7.57048 2.46816V0L11 3.13964Z" fill="#9EC5EF" />
        <path d="M9.19162 6.09981H2.96034C2.73788 6.09981 2.55946 5.93446 2.55946 5.73281C2.55946 5.52915 2.74008 5.36581 2.96034 5.36581H9.19162C9.41409 5.36581 9.5925 5.53116 9.5925 5.73281C9.5925 5.93446 9.41189 6.09981 9.19162 6.09981Z" fill="#9EC5EF" />
        <path d="M9.19162 8.51958H2.96034C2.73788 8.51958 2.55946 8.35423 2.55946 8.15258C2.55946 7.94892 2.74008 7.78558 2.96034 7.78558H9.19162C9.41409 7.78558 9.5925 7.95093 9.5925 8.15258C9.5925 8.35423 9.41189 8.51958 9.19162 8.51958Z" fill="#9EC5EF" />
    </symbol>
    <symbol id="default-batch" viewBox="0 0 12 12">
        <path d="M11 3.13964V10.9192C11 11.514 10.4736 11.998 9.82159 11.998H2.17841C1.52643 11.998 1 11.516 1 10.9192V1.07881C1 0.481936 1.52643 0 2.17841 0H7.57048" fill="currentColor" />
        <path d="M6.06388 0H2.17841C1.52643 0 1 0.481936 1 1.07881V10.9212C1 11.516 1.52643 12 2.17841 12H6.06388V0Z" fill="white" fill-opacity="0.1" />
        <path d="M11 3.13964H8.30396C7.89867 3.13964 7.57048 2.83919 7.57048 2.46816V0L11 3.13964Z" fill="white" fill-opacity="0.7" />
        <path d="M9.19162 6.09981H2.96034C2.73788 6.09981 2.55946 5.93446 2.55946 5.73281C2.55946 5.52915 2.74008 5.36581 2.96034 5.36581H9.19162C9.41409 5.36581 9.5925 5.53116 9.5925 5.73281C9.5925 5.93446 9.41189 6.09981 9.19162 6.09981Z" fill="white" fill-opacity="0.7"
        />
        <path d="M9.19162 8.51958H2.96034C2.73788 8.51958 2.55946 8.35423 2.55946 8.15258C2.55946 7.94892 2.74008 7.78558 2.96034 7.78558H9.19162C9.41409 7.78558 9.5925 7.95093 9.5925 8.15258C9.5925 8.35423 9.41189 8.51958 9.19162 8.51958Z" fill="white" fill-opacity="0.7"
        />
    </symbol>
    <symbol id="inquiry" viewBox="0 0 12 12">
        <path d="M8.4302 0.00286865H4.66892H0.832901C0.372081 0.00286865 0 0.410242 0 0.914771V3.91127V3.92149V5.98904V6.91799V9.5395C0 9.86335 0.373638 10.0065 0.5589 9.75426L1.96471 7.82989H8.43176C8.89102 7.82989 9.26466 7.42252 9.26466 6.91799V3.92149V3.91127V0.914771C9.26311 0.410242 8.89102 0.00286865 8.4302 0.00286865Z"
        fill="#A59CC7" />
        <path d="M8.4302 0.00286865H4.66891H4.63622V7.82989H8.43175C8.89102 7.82989 9.26465 7.42252 9.26465 6.91799V3.92149V3.91127V0.914771C9.2631 0.410242 8.89102 0.00286865 8.4302 0.00286865Z" fill="#7764BE" />
        <g opacity="0.76">
            <path d="M3.07318 2.79314C3.07318 2.60224 3.12923 2.40792 3.24132 2.2102C3.35341 2.01419 3.51843 1.85056 3.73327 1.72101C3.94812 1.59147 4.20032 1.5267 4.48833 1.5267C4.75611 1.5267 4.99119 1.58125 5.19513 1.68863C5.39908 1.79601 5.55787 1.9426 5.66841 2.12839C5.7805 2.31418 5.83499 2.51531 5.83499 2.73348C5.83499 2.90564 5.80385 3.05563 5.74002 3.18347C5.67619 3.31301 5.60146 3.4238 5.51272 3.51755C5.42554 3.6113 5.2683 3.76981 5.04101 3.9914C4.97873 4.05446 4.92892 4.10901 4.89 4.15673C4.85263 4.20446 4.82461 4.24707 4.80593 4.28627C4.78724 4.32548 4.77323 4.36468 4.76389 4.40388C4.75299 4.44309 4.73898 4.51297 4.71874 4.61183C4.68294 4.82148 4.57396 4.92716 4.39025 4.92716C4.29373 4.92716 4.21433 4.89307 4.14895 4.82489C4.08356 4.75671 4.05087 4.65444 4.05087 4.51979C4.05087 4.35104 4.07422 4.20446 4.12248 4.08003C4.17074 3.9556 4.23457 3.84652 4.31241 3.75277C4.39181 3.65902 4.49768 3.54823 4.63312 3.41869C4.75144 3.30619 4.83551 3.22097 4.88844 3.16301C4.94137 3.10506 4.98496 3.042 5.02077 2.97041C5.05658 2.90052 5.07526 2.82382 5.07526 2.7403C5.07526 2.57837 5.02077 2.44201 4.91023 2.33122C4.80126 2.22043 4.65959 2.16418 4.48678 2.16418C4.28439 2.16418 4.13494 2.22043 4.03841 2.33122C3.94189 2.44372 3.86093 2.60735 3.79555 2.82553C3.73327 3.05393 3.6134 3.16813 3.43903 3.16813C3.33628 3.16813 3.2491 3.12892 3.17749 3.04881C3.10899 2.97211 3.07318 2.88518 3.07318 2.79314ZM4.42139 6.10838C4.3093 6.10838 4.21122 6.06917 4.12715 5.98906C4.04308 5.90895 4.00105 5.79816 4.00105 5.65498C4.00105 5.52714 4.04153 5.42147 4.12248 5.33454C4.20344 5.24761 4.30307 5.20499 4.42139 5.20499C4.53815 5.20499 4.63468 5.24761 4.71407 5.33454C4.79347 5.42147 4.83239 5.52885 4.83239 5.65498C4.83239 5.79645 4.79036 5.90725 4.70785 5.98736C4.62689 6.06917 4.53037 6.10838 4.42139 6.10838Z"
            fill="#F2EFFD" />
        </g>
        <path d="M11.1671 2.12155H10.1972V6.91799C10.1972 7.985 9.40477 8.85259 8.4302 8.85259H2.73534V9.03667C2.73534 9.5395 3.10742 9.94857 3.56824 9.94857H10.0353L11.4411 11.8729C11.6264 12.1269 12 11.9837 12 11.6582V9.03667V8.10772V6.04018V6.02995V3.03175C11.9984 2.52892 11.6264 2.12155 11.1671 2.12155Z"
        fill="#5B4A9A" />
    </symbol>
    <symbol id="default-inquiry" viewBox="0 0 12 12">
        <path d="M8.4302 1.00287H4.66892H0.832901C0.372081 1.00287 0 1.41024 0 1.91477V4.91127V4.92149V6.98904V7.91799V10.5395C0 10.8633 0.373638 11.0065 0.5589 10.7543L1.96471 8.82989H8.43176C8.89102 8.82989 9.26466 8.42252 9.26466 7.91799V4.92149V4.91127V1.91477C9.26311 1.41024 8.89102 1.00287 8.4302 1.00287Z"
        fill="currentColor" />
        <path d="M11.1671 3.12155H10.1972V7.91799C10.1972 8.985 9.40477 9.85259 8.4302 9.85259H2.73534V10.0367C2.73534 10.5395 3.10742 10.9486 3.56824 10.9486H10.0353L11.4411 12.8729C11.6264 13.1269 12 12.9837 12 12.6582V10.0367V9.10772V7.04018V7.02995V4.03175C11.9984 3.52892 11.6264 3.12155 11.1671 3.12155Z"
        fill="currentColor" />
        <path d="M4.5 1.00286L4.66892 1.00285H0.832901C0.372081 1.00285 0 1.41022 0 1.91475V4.91124V4.92147V6.98902V7.91797V10.5395C0 10.8633 0.373638 11.0065 0.5589 10.7542L1.96471 8.82987L4.50156 8.82988C4.50156 8.82988 4.50156 8.82988 4.5 7.00609V4.00959V3.99936V1.00286C4.96082 1.00286 4.49844 0.498331 4.5 1.00286Z"
        fill="white" fill-opacity="0.2" />
        <path d="M8.4302 1.00287H4.53269H4.5V8.82989H8.43175C8.89102 8.82989 9.26465 8.42252 9.26465 7.91799V4.92149V4.91127V1.91477C9.2631 1.41024 8.89102 1.00287 8.4302 1.00287Z" fill="white" fill-opacity="0.1" />
        <path d="M3.07318 3.79314C3.07318 3.60224 3.12923 3.40792 3.24132 3.2102C3.35341 3.01419 3.51843 2.85056 3.73327 2.72101C3.94812 2.59147 4.20032 2.5267 4.48833 2.5267C4.75611 2.5267 4.99119 2.58125 5.19513 2.68863C5.39908 2.79601 5.55787 2.9426 5.66841 3.12839C5.7805 3.31418 5.83499 3.51531 5.83499 3.73348C5.83499 3.90564 5.80385 4.05563 5.74002 4.18347C5.67619 4.31301 5.60146 4.4238 5.51272 4.51755C5.42554 4.6113 5.2683 4.76981 5.04101 4.9914C4.97873 5.05446 4.92892 5.10901 4.89 5.15673C4.85263 5.20446 4.82461 5.24707 4.80593 5.28627C4.78724 5.32548 4.77323 5.36468 4.76389 5.40388C4.75299 5.44309 4.73898 5.51297 4.71874 5.61183C4.68294 5.82148 4.57396 5.92716 4.39025 5.92716C4.29373 5.92716 4.21433 5.89307 4.14895 5.82489C4.08356 5.75671 4.05087 5.65444 4.05087 5.51979C4.05087 5.35104 4.07422 5.20446 4.12248 5.08003C4.17074 4.9556 4.23457 4.84652 4.31241 4.75277C4.39181 4.65902 4.49768 4.54823 4.63312 4.41869C4.75144 4.30619 4.83551 4.22097 4.88844 4.16301C4.94137 4.10506 4.98496 4.042 5.02077 3.97041C5.05658 3.90052 5.07526 3.82382 5.07526 3.7403C5.07526 3.57837 5.02077 3.44201 4.91023 3.33122C4.80126 3.22043 4.65959 3.16418 4.48678 3.16418C4.28439 3.16418 4.13494 3.22043 4.03841 3.33122C3.94189 3.44372 3.86093 3.60735 3.79555 3.82553C3.73327 4.05393 3.6134 4.16813 3.43903 4.16813C3.33628 4.16813 3.2491 4.12892 3.17749 4.04881C3.10899 3.97211 3.07318 3.88518 3.07318 3.79314ZM4.42139 7.10838C4.3093 7.10838 4.21122 7.06917 4.12715 6.98906C4.04308 6.90895 4.00105 6.79816 4.00105 6.65498C4.00105 6.52714 4.04153 6.42147 4.12248 6.33454C4.20344 6.24761 4.30307 6.20499 4.42139 6.20499C4.53815 6.20499 4.63468 6.24761 4.71407 6.33454C4.79347 6.42147 4.83239 6.52885 4.83239 6.65498C4.83239 6.79645 4.79036 6.90725 4.70785 6.98736C4.62689 7.06917 4.53037 7.10838 4.42139 7.10838Z"
        fill="white" fill-opacity="0.7" />
    </symbol>
    <symbol id="master" viewBox="0 0 12 12">
        <g clip-path="url(#clip0_1009_234)">
            <path d="M9.3508 12H2.72291C2.3592 12 2.0643 11.7118 2.0643 11.3563C2.0643 11.0009 2.3592 10.7126 2.72291 10.7126H9.3508C9.71452 10.7126 10.0094 11.0009 10.0094 11.3563C10.0094 11.7118 9.71452 12 9.3508 12Z" fill="#FFC983" />
            <path d="M11.0489 2.36046C10.5255 2.36046 10.1003 2.77596 10.1003 3.28753C10.1003 3.48447 10.1642 3.66701 10.2724 3.81591L8.60127 5.50194C8.38747 5.7181 8.01393 5.64364 7.9058 5.36024L6.50993 1.7312C6.79009 1.57028 6.98177 1.27487 6.98177 0.933819C6.98177 0.422247 6.55663 0.00674438 6.03318 0.00674438C5.50973 0.00674438 5.08458 0.422247 5.08458 0.933819C5.08458 1.27487 5.27627 1.57028 5.55642 1.7312L4.16056 5.36024C4.05243 5.64124 3.68134 5.7181 3.46508 5.50194L1.74974 3.77268C1.83821 3.63098 1.89228 3.46766 1.89228 3.28753C1.89228 2.77596 1.46713 2.36046 0.943683 2.36046C0.420234 2.36046 -0.00245667 2.77596 -0.00245667 3.28753C-0.00245667 3.7991 0.422692 4.2146 0.94614 4.2146C0.95597 4.2146 0.963343 4.2122 0.973173 4.2122C0.973173 4.2122 1.97092 9.31266 2.0127 9.5C2.05448 9.68734 2.2265 9.82183 2.4231 9.82183C2.6197 9.82183 6.03563 9.82183 6.03563 9.82183C6.03563 9.82183 9.45157 9.82183 9.64817 9.82183C9.84477 9.82183 10.0143 9.68734 10.0586 9.5L11.0981 4.2098C11.5994 4.18578 12 3.78469 12 3.28753C11.9975 2.77596 11.5724 2.36046 11.0489 2.36046ZM6.05038 7.98054C5.62769 7.98054 5.2861 7.21919 5.2861 6.28251C5.2861 5.34583 5.62769 4.58447 6.05038 4.58447C6.47307 4.58447 6.81466 5.34583 6.81466 6.28251C6.81466 7.21919 6.47307 7.98054 6.05038 7.98054Z"
            fill="#FFC983" />
            <path d="M9.35082 10.7151H6.04547V12.0024H9.35082C9.71453 12.0024 10.0094 11.7142 10.0094 11.3587C10.0094 11.0033 9.71453 10.7151 9.35082 10.7151Z" fill="#FDB456" />
            <path d="M11.0391 2.35805C10.5157 2.35805 10.0905 2.77356 10.0905 3.28513C10.0905 3.48207 10.1544 3.6646 10.2625 3.81351L8.59144 5.49954C8.37763 5.7157 8.00409 5.64124 7.89596 5.35784L6.5001 1.7288C6.78025 1.56788 6.97194 1.27246 6.97194 0.931417C6.97194 0.422247 6.55171 0.0115479 6.03317 0.00674438V4.57967C6.03563 4.57967 6.03809 4.57967 6.04054 4.57967C6.46324 4.57967 6.80483 5.34102 6.80483 6.27771C6.80483 7.21439 6.46324 7.97574 6.04054 7.97574C6.03809 7.97574 6.03563 7.97574 6.03317 7.97574L6.03318 9.82183H9.63588C9.83248 9.82183 10.002 9.68734 10.0463 9.5L11.0858 4.205C11.5871 4.18098 11.9877 3.77989 11.9877 3.28273C11.9877 2.77356 11.5626 2.35805 11.0391 2.35805Z"
            fill="#FDB456" />
            <path d="M6.10445 8.15871C6.5727 8.15871 6.95229 7.3146 6.95229 6.27334C6.95229 5.23208 6.5727 4.38797 6.10445 4.38797C5.6362 4.38797 5.25661 5.23208 5.25661 6.27334C5.25661 7.3146 5.6362 8.15871 6.10445 8.15871Z" fill="#FFF2E0" />
            <path d="M0.911728 3.71789C1.15875 3.71789 1.35899 3.52219 1.35899 3.28078C1.35899 3.03936 1.15875 2.84366 0.911728 2.84366C0.66471 2.84366 0.464462 3.03936 0.464462 3.28078C0.464462 3.52219 0.66471 3.71789 0.911728 3.71789Z" fill="#FFF2E0" />
            <path d="M11.0809 3.71789C11.3279 3.71789 11.5282 3.52219 11.5282 3.28078C11.5282 3.03936 11.3279 2.84366 11.0809 2.84366C10.8339 2.84366 10.6336 3.03936 10.6336 3.28078C10.6336 3.52219 10.8339 3.71789 11.0809 3.71789Z" fill="#FFF2E0" />
            <path d="M6.0258 1.33777C6.27282 1.33777 6.47307 1.14206 6.47307 0.900649C6.47307 0.659236 6.27282 0.463531 6.0258 0.463531C5.77878 0.463531 5.57854 0.659236 5.57854 0.900649C5.57854 1.14206 5.77878 1.33777 6.0258 1.33777Z" fill="#FFF2E0" />
        </g>
        <defs>
            <clipPath id="clip0_1009_234">
                <rect width="12" height="12" fill="white" />
            </clipPath>
        </defs>
    </symbol>
    <symbol id="default-master" viewBox="0 0 12 12">
        <path d="M9.35326 12H2.72537C2.36166 12 2.06676 11.7118 2.06676 11.3563C2.06676 11.0009 2.36166 10.7126 2.72537 10.7126H9.35326C9.71697 10.7126 10.0119 11.0009 10.0119 11.3563C10.0119 11.7118 9.71697 12 9.35326 12Z" fill="currentColor" />
        <path d="M11.0514 2.36046C10.528 2.36046 10.1028 2.77596 10.1028 3.28753C10.1028 3.48447 10.1667 3.66701 10.2748 3.81591L8.60373 5.50194C8.38992 5.7181 8.01638 5.64364 7.90825 5.36024L6.51239 1.7312C6.79255 1.57028 6.98423 1.27487 6.98423 0.933819C6.98423 0.422247 6.55908 0.00674438 6.03563 0.00674438C5.51218 0.00674438 5.08704 0.422247 5.08704 0.933819C5.08704 1.27487 5.27872 1.57028 5.55888 1.7312L4.16301 5.36024C4.05488 5.64124 3.6838 5.7181 3.46754 5.50194L1.7522 3.77268C1.84067 3.63098 1.89474 3.46766 1.89474 3.28753C1.89474 2.77596 1.46959 2.36046 0.94614 2.36046C0.422691 2.36046 0 2.77596 0 3.28753C0 3.7991 0.425148 4.2146 0.948597 4.2146C0.958427 4.2146 0.9658 4.2122 0.97563 4.2122C0.97563 4.2122 1.97338 9.31266 2.01515 9.5C2.05693 9.68734 2.22896 9.82183 2.42556 9.82183C2.62216 9.82183 6.03809 9.82183 6.03809 9.82183C6.03809 9.82183 9.45402 9.82183 9.65062 9.82183C9.84722 9.82183 10.0168 9.68734 10.061 9.5L11.1006 4.2098C11.6019 4.18578 12.0025 3.78469 12.0025 3.28753C12 2.77596 11.5749 2.36046 11.0514 2.36046ZM6.05284 7.98054C5.63014 7.98054 5.28855 7.21919 5.28855 6.28251C5.28855 5.34583 5.63014 4.58447 6.05284 4.58447C6.47553 4.58447 6.81712 5.34583 6.81712 6.28251C6.81712 7.21919 6.47553 7.98054 6.05284 7.98054Z"
        fill="currentColor" />
        <path d="M6.1069 8.15871C6.57515 8.15871 6.95474 7.3146 6.95474 6.27334C6.95474 5.23208 6.57515 4.38797 6.1069 4.38797C5.63865 4.38797 5.25906 5.23208 5.25906 6.27334C5.25906 7.3146 5.63865 8.15871 6.1069 8.15871Z" fill="currentColor" />
        <path d="M6.1069 8.15871C6.57515 8.15871 6.95474 7.3146 6.95474 6.27334C6.95474 5.23208 6.57515 4.38797 6.1069 4.38797C5.63865 4.38797 5.25906 5.23208 5.25906 6.27334C5.25906 7.3146 5.63865 8.15871 6.1069 8.15871Z" fill="white" fill-opacity="0.7" />
        <path d="M9.35326 12H2.72537C2.36166 12 2.06676 11.7118 2.06676 11.3563C2.06676 11.0009 2.36166 10.7126 2.72537 10.7126H9.35326C9.71697 10.7126 10.0119 11.0009 10.0119 11.3563C10.0119 11.7118 9.71697 12 9.35326 12Z" fill="white" fill-opacity="0.1" />
        <path d="M11.0514 2.36046C10.528 2.36046 10.1028 2.77596 10.1028 3.28753C10.1028 3.48447 10.1667 3.66701 10.2748 3.81591L8.60373 5.50194C8.38992 5.7181 8.01638 5.64364 7.90825 5.36024L6.51239 1.7312C6.79255 1.57028 6.98423 1.27487 6.98423 0.933819C6.98423 0.422247 6.55908 0.00674438 6.03563 0.00674438C5.51218 0.00674438 5.08704 0.422247 5.08704 0.933819C5.08704 1.27487 5.27872 1.57028 5.55888 1.7312L4.16301 5.36024C4.05488 5.64124 3.6838 5.7181 3.46754 5.50194L1.7522 3.77268C1.84067 3.63098 1.89474 3.46766 1.89474 3.28753C1.89474 2.77596 1.46959 2.36046 0.94614 2.36046C0.422691 2.36046 0 2.77596 0 3.28753C0 3.7991 0.425148 4.2146 0.948597 4.2146C0.958427 4.2146 0.9658 4.2122 0.97563 4.2122C0.97563 4.2122 1.97338 9.31266 2.01515 9.5C2.05693 9.68734 2.22896 9.82183 2.42556 9.82183C2.62216 9.82183 6.03809 9.82183 6.03809 9.82183C6.03809 9.82183 9.45402 9.82183 9.65062 9.82183C9.84722 9.82183 10.0168 9.68734 10.061 9.5L11.1006 4.2098C11.6019 4.18578 12.0025 3.78469 12.0025 3.28753C12 2.77596 11.5749 2.36046 11.0514 2.36046ZM6.05284 7.98054C5.63014 7.98054 5.28855 7.21919 5.28855 6.28251C5.28855 5.34583 5.63014 4.58447 6.05284 4.58447C6.47553 4.58447 6.81712 5.34583 6.81712 6.28251C6.81712 7.21919 6.47553 7.98054 6.05284 7.98054Z"
        fill="white" fill-opacity="0.1" />
        <path d="M2.65861 10.7151H5.96396V12.0024H2.65861C2.2949 12.0024 2 11.7142 2 11.3587C2 11.0033 2.2949 10.7151 2.65861 10.7151Z" fill="white" fill-opacity="0.1" />
        <path d="M1.02859 2.35805C1.55204 2.35805 1.97719 2.77356 1.97719 3.28513C1.97719 3.48207 1.91329 3.6646 1.80516 3.81351L3.47627 5.49954C3.69007 5.7157 4.06361 5.64124 4.17174 5.35784L5.5676 1.7288C5.28745 1.56788 5.09576 1.27246 5.09576 0.931417C5.09576 0.422247 5.516 0.0115479 6.03453 0.00674438V4.57967C6.03207 4.57967 6.02962 4.57967 6.02716 4.57967C5.60447 4.57967 5.26287 5.34102 5.26287 6.27771C5.26287 7.21439 5.60447 7.97574 6.02716 7.97574C6.02962 7.97574 6.03207 7.97574 6.03453 7.97574L6.03453 9.82183H2.43182C2.23522 9.82183 2.06566 9.68734 2.02142 9.5L0.981899 4.205C0.480568 4.18098 0.0799942 3.77989 0.0799942 3.28273C0.0799942 2.77356 0.505143 2.35805 1.02859 2.35805Z"
        fill="white" fill-opacity="0.1" />
        <path d="M0.914185 3.71789C1.1612 3.71789 1.36145 3.52219 1.36145 3.28078C1.36145 3.03936 1.1612 2.84366 0.914185 2.84366C0.667167 2.84366 0.466919 3.03936 0.466919 3.28078C0.466919 3.52219 0.667167 3.71789 0.914185 3.71789Z" fill="white" fill-opacity="0.7"
        />
        <path d="M11.0833 3.71789C11.3304 3.71789 11.5306 3.52219 11.5306 3.28078C11.5306 3.03936 11.3304 2.84366 11.0833 2.84366C10.8363 2.84366 10.6361 3.03936 10.6361 3.28078C10.6361 3.52219 10.8363 3.71789 11.0833 3.71789Z" fill="white" fill-opacity="0.7"
        />
        <path d="M6.02826 1.33777C6.27528 1.33777 6.47553 1.14206 6.47553 0.900649C6.47553 0.659236 6.27528 0.463531 6.02826 0.463531C5.78124 0.463531 5.58099 0.659236 5.58099 0.900649C5.58099 1.14206 5.78124 1.33777 6.02826 1.33777Z" fill="white" fill-opacity="0.7"
        />

    </symbol>
    <symbol id="report" viewBox="0 0 12 12">
        <g clip-path="url(#clip0_1011_254)">
            <path d="M6.00653 0.491302H2.16507C1.52047 0.491302 1 0.953585 1 1.52418V10.9652C1 11.5358 1.52047 12 2.16507 12H6.00653V0.491302Z" fill="#33C9BB" />
            <path d="M5.99347 0.491302H9.83493C10.4774 0.491302 11 0.953585 11 1.52612V10.9671C11 11.5377 10.4795 12.0019 9.83493 12.0019H5.99347V0.491302Z" fill="#19A598" />
            <path d="M8.81794 1.61702H3.18205C2.95992 1.61702 2.77917 1.45648 2.77917 1.25919V0.355899C2.77917 0.160542 2.95992 0 3.18205 0H8.81794C9.04006 0 9.21864 0.160542 9.21864 0.355899V1.25919C9.21864 1.45648 9.04006 1.61702 8.81794 1.61702Z" fill="#6FF0E4"
            />
            <path d="M9.09015 8.52804H2.92944C2.70949 8.52804 2.5331 8.36943 2.5331 8.17601C2.5331 7.98065 2.71167 7.82397 2.92944 7.82397H9.09015C9.3101 7.82397 9.48649 7.98258 9.48649 8.17601C9.48649 8.36943 9.30792 8.52804 9.09015 8.52804Z" fill="#6FF0E4" />
            <path d="M9.09015 10.3617H2.92944C2.70949 10.3617 2.5331 10.2031 2.5331 10.0097C2.5331 9.81433 2.71167 9.65765 2.92944 9.65765H9.09015C9.3101 9.65765 9.48649 9.81626 9.48649 10.0097C9.48649 10.205 9.30792 10.3617 9.09015 10.3617Z" fill="#6FF0E4" />
            <path d="M8.81794 0H5.97386V1.61702H8.81794C9.04006 1.61702 9.21864 1.45648 9.21864 1.26112V0.355899C9.21864 0.160542 9.04006 0 8.81794 0Z" fill="#4CD2C5" />
            <path d="M3.17117 6.31139L4.59321 4.82203L6.39635 6.29785L8.84844 3.98837" stroke="#6FF0E4" stroke-miterlimit="10" stroke-linecap="round" stroke-linejoin="round" />
            <path d="M4.60193 5.38682C4.96875 5.38682 5.26613 5.1227 5.26613 4.79688C5.26613 4.47107 4.96875 4.20694 4.60193 4.20694C4.2351 4.20694 3.93773 4.47107 3.93773 4.79688C3.93773 5.1227 4.2351 5.38682 4.60193 5.38682Z" fill="#6FF0E4" />
            <path d="M6.37892 6.76015C6.74575 6.76015 7.04312 6.49602 7.04312 6.1702C7.04312 5.84439 6.74575 5.58026 6.37892 5.58026C6.01209 5.58026 5.71472 5.84439 5.71472 6.1702C5.71472 6.49602 6.01209 6.76015 6.37892 6.76015Z" fill="#6FF0E4" />
            <path d="M8.86368 4.47581C9.2305 4.47581 9.52788 4.21169 9.52788 3.88587C9.52788 3.56005 9.2305 3.29593 8.86368 3.29593C8.49685 3.29593 8.19948 3.56005 8.19948 3.88587C8.19948 4.21169 8.49685 4.47581 8.86368 4.47581Z" fill="#6FF0E4" />
            <path d="M3.17117 6.97871C3.538 6.97871 3.83537 6.71459 3.83537 6.38877C3.83537 6.06295 3.538 5.79883 3.17117 5.79883C2.80435 5.79883 2.50697 6.06295 2.50697 6.38877C2.50697 6.71459 2.80435 6.97871 3.17117 6.97871Z" fill="#6FF0E4" />
        </g>
        <defs>
            <clipPath id="clip0_1011_254">
                <rect width="10" height="12" fill="white" transform="translate(1)" />
            </clipPath>
        </defs>
    </symbol>
    <symbol id="default-report" viewBox="0 0 12 12">
        <g clip-path="url(#clip0_1016_18)">
            <path d="M6.00653 0.491302H2.16507C1.52047 0.491302 1 0.953585 1 1.52418V10.9652C1 11.5358 1.52047 12 2.16507 12H6.00653V0.491302Z" fill="currentColor"/>
            <path d="M5.99347 0.491302H9.83493C10.4774 0.491302 11 0.953585 11 1.52612V10.9671C11 11.5377 10.4795 12.0019 9.83493 12.0019H5.99347V0.491302Z" fill="currentColor"/>
            <path d="M6.00653 0.491302H2.16507C1.52047 0.491302 1 0.953585 1 1.52418V10.9652C1 11.5358 1.52047 12 2.16507 12H6.00653V0.491302Z" fill="white" fill-opacity="0.3"/>
            <path d="M5.99347 0.491302H9.83493C10.4774 0.491302 11 0.953585 11 1.52612V10.9671C11 11.5377 10.4795 12.0019 9.83493 12.0019H5.99347V0.491302Z" fill="white" fill-opacity="0.15"/>
            <path d="M8.81794 1.61702H3.18205C2.95992 1.61702 2.77917 1.45648 2.77917 1.25919V0.355899C2.77917 0.160542 2.95992 0 3.18205 0H8.81794C9.04006 0 9.21864 0.160542 9.21864 0.355899V1.25919C9.21864 1.45648 9.04006 1.61702 8.81794 1.61702Z" fill="currentColor"/>
            <path d="M8.81794 1.61702H3.18205C2.95992 1.61702 2.77917 1.45648 2.77917 1.25919V0.355899C2.77917 0.160542 2.95992 0 3.18205 0H8.81794C9.04006 0 9.21864 0.160542 9.21864 0.355899V1.25919C9.21864 1.45648 9.04006 1.61702 8.81794 1.61702Z" fill="white" fill-opacity="0.15"/>
            <path d="M9.09015 8.52804H2.92944C2.70949 8.52804 2.5331 8.36943 2.5331 8.17601C2.5331 7.98065 2.71167 7.82397 2.92944 7.82397H9.09015C9.3101 7.82397 9.48649 7.98258 9.48649 8.17601C9.48649 8.36943 9.30792 8.52804 9.09015 8.52804Z" fill="white" fill-opacity="0.7"/>
            <path d="M9.09015 10.3617H2.92944C2.70949 10.3617 2.5331 10.2031 2.5331 10.0097C2.5331 9.81433 2.71167 9.65765 2.92944 9.65765H9.09015C9.3101 9.65765 9.48649 9.81626 9.48649 10.0097C9.48649 10.205 9.30792 10.3617 9.09015 10.3617Z" fill="white" fill-opacity="0.7"/>
            <path d="M8.81794 0H5.97386V1.61702H8.81794C9.04006 1.61702 9.21864 1.45648 9.21864 1.26112V0.355899C9.21864 0.160542 9.04006 0 8.81794 0Z" fill="white" fill-opacity="0.15"/>
            <path d="M3.17117 6.31139L4.59321 4.82203L6.39635 6.29785L8.84844 3.98837" stroke="white" stroke-opacity="0.7" stroke-miterlimit="10" stroke-linecap="round" stroke-linejoin="round" fill="none"/>
        </g>
        <defs>
            <clipPath id="clip0_1016_18">
                <rect width="10" height="12" fill="white" transform="translate(1)"/>
            </clipPath>
        </defs>
    </symbol>
    <symbol id="transaction" viewBox="0 0 12 12">
        <g clip-path="url(#clip0_1009_211)">
            <path d="M9.5733 3H3.4267C3.19047 3 3 2.70765 3 2.35007V0.649925C3 0.290105 3.19194 0 3.4267 0H9.5733C9.80953 0 10 0.292354 10 0.649925V2.34783C10 2.70765 9.80806 3 9.5733 3Z" fill="#F36848" />
            <path d="M10.0993 1H1.89901C1.40161 1 1 1.57491 1 2.28158V6.49281V6.50719V10.7184C1 11.4251 1.40161 12 1.89901 12H10.101C10.5967 12 11 11.4275 11 10.7184V6.50719V6.49281V2.28158C10.9983 1.57491 10.5967 1 10.0993 1Z" fill="#FD7C5F" />
            <path d="M11.5161 9H8.48394C8.21736 9 8 8.55317 8 7.99887V5.00113C8 4.44966 8.21599 4 8.48394 4H11.5161C11.7826 4 12 4.44683 12 5.00113V8.0017C12 8.55317 11.7826 9 11.5161 9Z" fill="#F36848" />
            <path d="M6 1H1.89196C1.39847 1 1 1.57491 1 2.28158V6.49281V6.50719V10.7184C1 11.4251 1.39847 12 1.89196 12H6V1Z" fill="#FF9E88" />
        </g>
        <defs>
            <clipPath id="clip0_1009_211">
                <rect width="12" height="12" fill="white" />
            </clipPath>
        </defs>
    </symbol>
    <symbol id="default-transaction" viewBox="0 0 12 12">
        <g clip-path="url(#clip0_1016_35)">
            <path d="M9.5733 3H3.4267C3.19047 3 3 2.70765 3 2.35007V0.649925C3 0.290105 3.19194 0 3.4267 0H9.5733C9.80953 0 10 0.292354 10 0.649925V2.34783C10 2.70765 9.80806 3 9.5733 3Z" fill="currentColor" />
            <path d="M9.5733 3H3.4267C3.19047 3 3 2.70765 3 2.35007V0.649925C3 0.290105 3.19194 0 3.4267 0H9.5733C9.80953 0 10 0.292354 10 0.649925V2.34783C10 2.70765 9.80806 3 9.5733 3Z" fill="white" fill-opacity="0.05" />
            <path d="M10.0993 1H1.89901C1.40161 1 1 1.57491 1 2.28158V6.49281V6.50719V10.7184C1 11.4251 1.40161 12 1.89901 12H10.101C10.5967 12 11 11.4275 11 10.7184V6.50719V6.49281V2.28158C10.9983 1.57491 10.5967 1 10.0993 1Z" fill="currentColor" />
            <path d="M10.0993 1H1.89901C1.40161 1 1 1.57491 1 2.28158V6.49281V6.50719V10.7184C1 11.4251 1.40161 12 1.89901 12H10.101C10.5967 12 11 11.4275 11 10.7184V6.50719V6.49281V2.28158C10.9983 1.57491 10.5967 1 10.0993 1Z" fill="white" fill-opacity="0.25" />
            <path d="M11.5161 9H8.48394C8.21736 9 8 8.55317 8 7.99887V5.00113C8 4.44966 8.21599 4 8.48394 4H11.5161C11.7826 4 12 4.44683 12 5.00113V8.0017C12 8.55317 11.7826 9 11.5161 9Z" fill="currentColor" />
            <path d="M6 1H1.89196C1.39847 1 1 1.57491 1 2.28158V6.49281V6.50719V10.7184C1 11.4251 1.39847 12 1.89196 12H6V1Z" fill="white" fill-opacity="0.25" />
        </g>
        <defs>
            <clipPath id="clip0_1016_35">
                <rect width="12" height="12" fill="white" />
            </clipPath>
        </defs>
    </symbol>
</svg>