<svg xmlns="http://www.w3.org/2000/svg" style="display: none;">
    <symbol id="default" viewBox="0 0 28 28">
        <path fill="currentColor" d="M27.14 15.75H14.92l8.62 8.62c0.33 0.33 0.87 0.35 1.21 0.04 2.11-1.99 3.56-4.68 3.99-7.71 0.07-0.52-0.36-0.98-0.88-0.98zM26.46 11.93C26.02 5.66 21.01 0.65 14.85 0.003c-0.5-0.03-0.94 0.42-0.94 0.91v12.18h12.22c0.5 0 0.92-0.42 0.89-0.93zM11.55 15.75V2.77c0-0.5-0.44-0.91-0.94-0.84C4.48 2.81-0.21 8.48 0.07 15.23c0.23 6.78 6.39 12.62 13.53 12.52 2.81-0.04 5.41-0.94 7.54-2.45 0.44-0.31 0.47-0.96 0.09-1.34L11.55 15.75z"/>
    </symbol>
    <symbol id="fav" viewBox="0 0 32 32">
        <path fill="currentColor" d="M32,12.244 L20.962,10.56 L16,0 L11.038,10.56 L0,12.244 L7.985,20.42 L6.095,32 L16,26.53 L25.905,32 L24.015,20.42 L32,12.244"/>
    </symbol>
    <symbol id="see-password" viewBox="0 0 28 28">
        <path clip-rule="evenodd" fill="currentColor" fill-rule="evenodd" d="M17.7469 15.4149C17.9855 14.8742 18.1188 14.2724 18.1188 14.0016C18.1188 11.6544 16.2952 9.7513 14.046 9.7513C11.7969 9.7513 9.97332 11.6544 9.97332 14.0016C9.97332 16.3487 12.0097 17.8886 14.046 17.8886C15.3486 17.8886 16.508 17.2515 17.2517 16.2595C17.4466 16.0001 17.6137 15.7168 17.7469 15.4149ZM14.046 15.7635C14.5551 15.7635 15.0205 15.5684 15.3784 15.2457C15.81 14.8566 16 14.2807 16 14.0016C16 12.828 15.1716 11.8764 14.046 11.8764C12.9205 11.8764 12 12.8264 12 14C12 14.8104 12.9205 15.7635 14.046 15.7635Z"/>
        <path clip-rule="evenodd" fill="currentColor" fill-rule="evenodd" d="M1.09212 14.2724C1.07621 14.2527 1.10803 14.2931 1.09212 14.2724C0.96764 14.1021 0.970773 13.8996 1.09268 13.7273C1.10161 13.7147 1.11071 13.7016 1.11993 13.6882C4.781 8.34319 9.32105 5.5 14.0142 5.5C18.7025 5.5 23.2385 8.33554 26.8956 13.6698C26.965 13.771 27 13.875 27 13.9995C27 14.1301 26.9593 14.2399 26.8863 14.3461C23.2302 19.6702 18.6982 22.5 14.0142 22.5C9.30912 22.5 4.75717 19.6433 1.09212 14.2724ZM3.93909 13.3525C3.6381 13.7267 3.6381 14.2722 3.93908 14.6465C7.07417 18.5443 10.6042 20.3749 14.0142 20.3749C17.4243 20.3749 20.9543 18.5443 24.0894 14.6465C24.3904 14.2722 24.3904 13.7267 24.0894 13.3525C20.9543 9.45475 17.4243 7.62513 14.0142 7.62513C10.6042 7.62513 7.07417 9.45475 3.93909 13.3525Z"/>
    </symbol>
    <symbol id="hide-password" viewBox="0 0 28 28">
        <path clip-rule="evenodd" fill="currentColor" fill-rule="evenodd" d="M22.6928 1.55018C22.3102 1.32626 21.8209 1.45915 21.6 1.84698L19.1533 6.14375C17.4864 5.36351 15.7609 4.96457 14.0142 4.96457C9.32104 4.96457 4.781 7.84644 1.11993 13.2641L1.10541 13.2854L1.09271 13.3038C0.970762 13.4784 0.967649 13.6837 1.0921 13.8563C3.79364 17.8691 6.97705 20.4972 10.3484 21.6018L8.39935 25.0222C8.1784 25.4101 8.30951 25.906 8.69214 26.1299L9.03857 26.3326C9.4212 26.5565 9.91046 26.4237 10.1314 26.0358L23.332 2.86058C23.553 2.47275 23.4219 1.97684 23.0392 1.75291L22.6928 1.55018ZM18.092 8.00705C16.7353 7.40974 15.3654 7.1186 14.0142 7.1186C10.6042 7.1186 7.07416 8.97311 3.93908 12.9239C3.63812 13.3032 3.63812 13.8561 3.93908 14.2354C6.28912 17.197 8.86102 18.9811 11.438 19.689L12.7855 17.3232C11.2462 16.8322 9.97333 15.4627 9.97333 13.5818C9.97333 11.2026 11.7969 9.27368 14.046 9.27368C15.0842 9.27368 16.0317 9.68468 16.7511 10.3612L18.092 8.00705ZM15.639 12.3137C15.2926 11.7767 14.7231 11.4277 14.046 11.4277C12.9205 11.4277 12 12.3906 12 13.5802C12 14.3664 12.8432 15.2851 13.9024 15.3624L15.639 12.3137Z"/>
        <path clip-rule="evenodd" fill="currentColor" fill-rule="evenodd" d="M14.6873 22.1761C19.1311 21.9148 23.4056 19.0687 26.8864 13.931C26.9593 13.8234 27 13.7121 27 13.5797C27 13.4535 26.965 13.3481 26.8956 13.2455C25.5579 11.2677 24.1025 9.62885 22.5652 8.34557L21.506 10.2052C22.3887 10.9653 23.2531 11.87 24.0894 12.9239C24.3904 13.3032 24.3904 13.8561 24.0894 14.2354C21.5676 17.4135 18.7903 19.2357 16.0254 19.827L14.6873 22.1761Z"/>
    </symbol>
    <symbol id="batch" viewBox="0 0 12 12">
        <path d="M11 3.13964V10.9192C11 11.514 10.4736 11.998 9.82159 11.998H2.17841C1.52643 11.998 1 11.516 1 10.9192V1.07881C1 0.481936 1.52643 0 2.17841 0H7.57048" fill="#1773E0"/>
        <path d="M6.06388 0H2.17841C1.52643 0 1 0.481936 1 1.07881V10.9212C1 11.516 1.52643 12 2.17841 12H6.06388V0Z" fill="#3086ED"/>
        <path d="M11 3.13964H8.30396C7.89867 3.13964 7.57048 2.83919 7.57048 2.46816V0L11 3.13964Z" fill="#9EC5EF"/>
        <path d="M9.19162 6.09981H2.96034C2.73788 6.09981 2.55946 5.93446 2.55946 5.73281C2.55946 5.52915 2.74008 5.36581 2.96034 5.36581H9.19162C9.41409 5.36581 9.5925 5.53116 9.5925 5.73281C9.5925 5.93446 9.41189 6.09981 9.19162 6.09981Z" fill="#9EC5EF"/>
        <path d="M9.19162 8.51958H2.96034C2.73788 8.51958 2.55946 8.35423 2.55946 8.15258C2.55946 7.94892 2.74008 7.78558 2.96034 7.78558H9.19162C9.41409 7.78558 9.5925 7.95093 9.5925 8.15258C9.5925 8.35423 9.41189 8.51958 9.19162 8.51958Z" fill="#9EC5EF"/>
    </symbol>
    <symbol id="inquiry" viewBox="0 0 12 12">
        <path d="M8.4302 0.00286865H4.66892H0.832901C0.372081 0.00286865 0 0.410242 0 0.914771V3.91127V3.92149V5.98904V6.91799V9.5395C0 9.86335 0.373638 10.0065 0.5589 9.75426L1.96471 7.82989H8.43176C8.89102 7.82989 9.26466 7.42252 9.26466 6.91799V3.92149V3.91127V0.914771C9.26311 0.410242 8.89102 0.00286865 8.4302 0.00286865Z" fill="#A59CC7"/>
        <path d="M8.4302 0.00286865H4.66891H4.63622V7.82989H8.43175C8.89102 7.82989 9.26465 7.42252 9.26465 6.91799V3.92149V3.91127V0.914771C9.2631 0.410242 8.89102 0.00286865 8.4302 0.00286865Z" fill="#7764BE"/>
        <g opacity="0.76">
            <path d="M3.07318 2.79314C3.07318 2.60224 3.12923 2.40792 3.24132 2.2102C3.35341 2.01419 3.51843 1.85056 3.73327 1.72101C3.94812 1.59147 4.20032 1.5267 4.48833 1.5267C4.75611 1.5267 4.99119 1.58125 5.19513 1.68863C5.39908 1.79601 5.55787 1.9426 5.66841 2.12839C5.7805 2.31418 5.83499 2.51531 5.83499 2.73348C5.83499 2.90564 5.80385 3.05563 5.74002 3.18347C5.67619 3.31301 5.60146 3.4238 5.51272 3.51755C5.42554 3.6113 5.2683 3.76981 5.04101 3.9914C4.97873 4.05446 4.92892 4.10901 4.89 4.15673C4.85263 4.20446 4.82461 4.24707 4.80593 4.28627C4.78724 4.32548 4.77323 4.36468 4.76389 4.40388C4.75299 4.44309 4.73898 4.51297 4.71874 4.61183C4.68294 4.82148 4.57396 4.92716 4.39025 4.92716C4.29373 4.92716 4.21433 4.89307 4.14895 4.82489C4.08356 4.75671 4.05087 4.65444 4.05087 4.51979C4.05087 4.35104 4.07422 4.20446 4.12248 4.08003C4.17074 3.9556 4.23457 3.84652 4.31241 3.75277C4.39181 3.65902 4.49768 3.54823 4.63312 3.41869C4.75144 3.30619 4.83551 3.22097 4.88844 3.16301C4.94137 3.10506 4.98496 3.042 5.02077 2.97041C5.05658 2.90052 5.07526 2.82382 5.07526 2.7403C5.07526 2.57837 5.02077 2.44201 4.91023 2.33122C4.80126 2.22043 4.65959 2.16418 4.48678 2.16418C4.28439 2.16418 4.13494 2.22043 4.03841 2.33122C3.94189 2.44372 3.86093 2.60735 3.79555 2.82553C3.73327 3.05393 3.6134 3.16813 3.43903 3.16813C3.33628 3.16813 3.2491 3.12892 3.17749 3.04881C3.10899 2.97211 3.07318 2.88518 3.07318 2.79314ZM4.42139 6.10838C4.3093 6.10838 4.21122 6.06917 4.12715 5.98906C4.04308 5.90895 4.00105 5.79816 4.00105 5.65498C4.00105 5.52714 4.04153 5.42147 4.12248 5.33454C4.20344 5.24761 4.30307 5.20499 4.42139 5.20499C4.53815 5.20499 4.63468 5.24761 4.71407 5.33454C4.79347 5.42147 4.83239 5.52885 4.83239 5.65498C4.83239 5.79645 4.79036 5.90725 4.70785 5.98736C4.62689 6.06917 4.53037 6.10838 4.42139 6.10838Z" fill="#F2EFFD"/>
        </g>
        <path d="M11.1671 2.12155H10.1972V6.91799C10.1972 7.985 9.40477 8.85259 8.4302 8.85259H2.73534V9.03667C2.73534 9.5395 3.10742 9.94857 3.56824 9.94857H10.0353L11.4411 11.8729C11.6264 12.1269 12 11.9837 12 11.6582V9.03667V8.10772V6.04018V6.02995V3.03175C11.9984 2.52892 11.6264 2.12155 11.1671 2.12155Z" fill="#5B4A9A"/>
    </symbol>
    <symbol id="master" viewBox="0 0 12 12">
        <g clip-path="url(#clip0_1009_234)">
            <path d="M9.3508 12H2.72291C2.3592 12 2.0643 11.7118 2.0643 11.3563C2.0643 11.0009 2.3592 10.7126 2.72291 10.7126H9.3508C9.71452 10.7126 10.0094 11.0009 10.0094 11.3563C10.0094 11.7118 9.71452 12 9.3508 12Z" fill="#FFC983"/>
            <path d="M11.0489 2.36046C10.5255 2.36046 10.1003 2.77596 10.1003 3.28753C10.1003 3.48447 10.1642 3.66701 10.2724 3.81591L8.60127 5.50194C8.38747 5.7181 8.01393 5.64364 7.9058 5.36024L6.50993 1.7312C6.79009 1.57028 6.98177 1.27487 6.98177 0.933819C6.98177 0.422247 6.55663 0.00674438 6.03318 0.00674438C5.50973 0.00674438 5.08458 0.422247 5.08458 0.933819C5.08458 1.27487 5.27627 1.57028 5.55642 1.7312L4.16056 5.36024C4.05243 5.64124 3.68134 5.7181 3.46508 5.50194L1.74974 3.77268C1.83821 3.63098 1.89228 3.46766 1.89228 3.28753C1.89228 2.77596 1.46713 2.36046 0.943683 2.36046C0.420234 2.36046 -0.00245667 2.77596 -0.00245667 3.28753C-0.00245667 3.7991 0.422692 4.2146 0.94614 4.2146C0.95597 4.2146 0.963343 4.2122 0.973173 4.2122C0.973173 4.2122 1.97092 9.31266 2.0127 9.5C2.05448 9.68734 2.2265 9.82183 2.4231 9.82183C2.6197 9.82183 6.03563 9.82183 6.03563 9.82183C6.03563 9.82183 9.45157 9.82183 9.64817 9.82183C9.84477 9.82183 10.0143 9.68734 10.0586 9.5L11.0981 4.2098C11.5994 4.18578 12 3.78469 12 3.28753C11.9975 2.77596 11.5724 2.36046 11.0489 2.36046ZM6.05038 7.98054C5.62769 7.98054 5.2861 7.21919 5.2861 6.28251C5.2861 5.34583 5.62769 4.58447 6.05038 4.58447C6.47307 4.58447 6.81466 5.34583 6.81466 6.28251C6.81466 7.21919 6.47307 7.98054 6.05038 7.98054Z" fill="#FFC983"/>
            <path d="M9.35082 10.7151H6.04547V12.0024H9.35082C9.71453 12.0024 10.0094 11.7142 10.0094 11.3587C10.0094 11.0033 9.71453 10.7151 9.35082 10.7151Z" fill="#FDB456"/>
            <path d="M11.0391 2.35805C10.5157 2.35805 10.0905 2.77356 10.0905 3.28513C10.0905 3.48207 10.1544 3.6646 10.2625 3.81351L8.59144 5.49954C8.37763 5.7157 8.00409 5.64124 7.89596 5.35784L6.5001 1.7288C6.78025 1.56788 6.97194 1.27246 6.97194 0.931417C6.97194 0.422247 6.55171 0.0115479 6.03317 0.00674438V4.57967C6.03563 4.57967 6.03809 4.57967 6.04054 4.57967C6.46324 4.57967 6.80483 5.34102 6.80483 6.27771C6.80483 7.21439 6.46324 7.97574 6.04054 7.97574C6.03809 7.97574 6.03563 7.97574 6.03317 7.97574L6.03318 9.82183H9.63588C9.83248 9.82183 10.002 9.68734 10.0463 9.5L11.0858 4.205C11.5871 4.18098 11.9877 3.77989 11.9877 3.28273C11.9877 2.77356 11.5626 2.35805 11.0391 2.35805Z" fill="#FDB456"/>
            <path d="M6.10445 8.15871C6.5727 8.15871 6.95229 7.3146 6.95229 6.27334C6.95229 5.23208 6.5727 4.38797 6.10445 4.38797C5.6362 4.38797 5.25661 5.23208 5.25661 6.27334C5.25661 7.3146 5.6362 8.15871 6.10445 8.15871Z" fill="#FFF2E0"/>
            <path d="M0.911728 3.71789C1.15875 3.71789 1.35899 3.52219 1.35899 3.28078C1.35899 3.03936 1.15875 2.84366 0.911728 2.84366C0.66471 2.84366 0.464462 3.03936 0.464462 3.28078C0.464462 3.52219 0.66471 3.71789 0.911728 3.71789Z" fill="#FFF2E0"/>
            <path d="M11.0809 3.71789C11.3279 3.71789 11.5282 3.52219 11.5282 3.28078C11.5282 3.03936 11.3279 2.84366 11.0809 2.84366C10.8339 2.84366 10.6336 3.03936 10.6336 3.28078C10.6336 3.52219 10.8339 3.71789 11.0809 3.71789Z" fill="#FFF2E0"/>
            <path d="M6.0258 1.33777C6.27282 1.33777 6.47307 1.14206 6.47307 0.900649C6.47307 0.659236 6.27282 0.463531 6.0258 0.463531C5.77878 0.463531 5.57854 0.659236 5.57854 0.900649C5.57854 1.14206 5.77878 1.33777 6.0258 1.33777Z" fill="#FFF2E0"/>
        </g>
        <defs>
            <clipPath id="clip0_1009_234">
                <rect width="12" height="12" fill="white"/>
            </clipPath>
        </defs>
    </symbol>
    <symbol id="report" viewBox="0 0 12 12">
        <g clip-path="url(#clip0_1011_254)">
            <path d="M6.00653 0.491302H2.16507C1.52047 0.491302 1 0.953585 1 1.52418V10.9652C1 11.5358 1.52047 12 2.16507 12H6.00653V0.491302Z" fill="#33C9BB"/>
            <path d="M5.99347 0.491302H9.83493C10.4774 0.491302 11 0.953585 11 1.52612V10.9671C11 11.5377 10.4795 12.0019 9.83493 12.0019H5.99347V0.491302Z" fill="#19A598"/>
            <path d="M8.81794 1.61702H3.18205C2.95992 1.61702 2.77917 1.45648 2.77917 1.25919V0.355899C2.77917 0.160542 2.95992 0 3.18205 0H8.81794C9.04006 0 9.21864 0.160542 9.21864 0.355899V1.25919C9.21864 1.45648 9.04006 1.61702 8.81794 1.61702Z" fill="#6FF0E4"/>
            <path d="M9.09015 8.52804H2.92944C2.70949 8.52804 2.5331 8.36943 2.5331 8.17601C2.5331 7.98065 2.71167 7.82397 2.92944 7.82397H9.09015C9.3101 7.82397 9.48649 7.98258 9.48649 8.17601C9.48649 8.36943 9.30792 8.52804 9.09015 8.52804Z" fill="#6FF0E4"/>
            <path d="M9.09015 10.3617H2.92944C2.70949 10.3617 2.5331 10.2031 2.5331 10.0097C2.5331 9.81433 2.71167 9.65765 2.92944 9.65765H9.09015C9.3101 9.65765 9.48649 9.81626 9.48649 10.0097C9.48649 10.205 9.30792 10.3617 9.09015 10.3617Z" fill="#6FF0E4"/>
            <path d="M8.81794 0H5.97386V1.61702H8.81794C9.04006 1.61702 9.21864 1.45648 9.21864 1.26112V0.355899C9.21864 0.160542 9.04006 0 8.81794 0Z" fill="#4CD2C5"/>
            <path d="M3.17117 6.31139L4.59321 4.82203L6.39635 6.29785L8.84844 3.98837" stroke="#6FF0E4" stroke-miterlimit="10" stroke-linecap="round" stroke-linejoin="round"/>
            <path d="M4.60193 5.38682C4.96875 5.38682 5.26613 5.1227 5.26613 4.79688C5.26613 4.47107 4.96875 4.20694 4.60193 4.20694C4.2351 4.20694 3.93773 4.47107 3.93773 4.79688C3.93773 5.1227 4.2351 5.38682 4.60193 5.38682Z" fill="#6FF0E4"/>
            <path d="M6.37892 6.76015C6.74575 6.76015 7.04312 6.49602 7.04312 6.1702C7.04312 5.84439 6.74575 5.58026 6.37892 5.58026C6.01209 5.58026 5.71472 5.84439 5.71472 6.1702C5.71472 6.49602 6.01209 6.76015 6.37892 6.76015Z" fill="#6FF0E4"/>
            <path d="M8.86368 4.47581C9.2305 4.47581 9.52788 4.21169 9.52788 3.88587C9.52788 3.56005 9.2305 3.29593 8.86368 3.29593C8.49685 3.29593 8.19948 3.56005 8.19948 3.88587C8.19948 4.21169 8.49685 4.47581 8.86368 4.47581Z" fill="#6FF0E4"/>
            <path d="M3.17117 6.97871C3.538 6.97871 3.83537 6.71459 3.83537 6.38877C3.83537 6.06295 3.538 5.79883 3.17117 5.79883C2.80435 5.79883 2.50697 6.06295 2.50697 6.38877C2.50697 6.71459 2.80435 6.97871 3.17117 6.97871Z" fill="#6FF0E4"/>
        </g>
        <defs>
            <clipPath id="clip0_1011_254">
                <rect width="10" height="12" fill="white" transform="translate(1)"/>
            </clipPath>
        </defs>
    </symbol>
    <symbol id="transaction" viewBox="0 0 12 12">
        <g clip-path="url(#clip0_1009_211)">
            <path d="M9.5733 3H3.4267C3.19047 3 3 2.70765 3 2.35007V0.649925C3 0.290105 3.19194 0 3.4267 0H9.5733C9.80953 0 10 0.292354 10 0.649925V2.34783C10 2.70765 9.80806 3 9.5733 3Z" fill="#F36848"/>
            <path d="M10.0993 1H1.89901C1.40161 1 1 1.57491 1 2.28158V6.49281V6.50719V10.7184C1 11.4251 1.40161 12 1.89901 12H10.101C10.5967 12 11 11.4275 11 10.7184V6.50719V6.49281V2.28158C10.9983 1.57491 10.5967 1 10.0993 1Z" fill="#FD7C5F"/>
            <path d="M11.5161 9H8.48394C8.21736 9 8 8.55317 8 7.99887V5.00113C8 4.44966 8.21599 4 8.48394 4H11.5161C11.7826 4 12 4.44683 12 5.00113V8.0017C12 8.55317 11.7826 9 11.5161 9Z" fill="#F36848"/>
            <path d="M6 1H1.89196C1.39847 1 1 1.57491 1 2.28158V6.49281V6.50719V10.7184C1 11.4251 1.39847 12 1.89196 12H6V1Z" fill="#FF9E88"/>
        </g>
        <defs>
            <clipPath id="clip0_1009_211">
                <rect width="12" height="12" fill="white"/>
            </clipPath>
        </defs>
    </symbol>
</svg>